<?xml version="1.0" encoding="UTF-8"?>
<svg width="27px" height="16px" viewBox="0 0 27 16" version="1.1" xmlns="http://www.w3.org/2000/svg" xmlns:xlink="http://www.w3.org/1999/xlink">
    <!-- Generator: Sketch 52 (66869) - http://www.bohemiancoding.com/sketch -->
    <title>Oval</title>
    <desc>Created with Sketch.</desc>
    <g id="ui_kit" stroke="none" stroke-width="1" fill="none" fill-rule="evenodd">
        <g id="Desktop-HD" transform="translate(-2090.000000, -1178.000000)" stroke="#454545" stroke-width="2.5">
            <path d="M2099.83475,1175.83475 L2109.83475,1185.83475 C2104.34263,1191.4121 2100.90829,1194.91017 2099.53172,1196.32895 C2098.82527,1197.05706 2099.33475,1197.5584 2099.33475,1197.5584 C2099.33475,1197.5584 2099.54968,1197.9662 2100.36558,1197.79104 C2105.77764,1196.62919 2109.83475,1191.81759 2109.83475,1186.0584 C2109.83475,1185.94636 2109.74734,1184.59366 2109.72574,1184.43404 C2109.00914,1179.13852 2104.83823,1174.93976 2099.55623,1174.18096 C2098.99405,1174.1002 2098.59848,1174.34664 2098.33475,1174.5584 C2098.07103,1174.77017 2097.83475,1174.97745 2097.83475,1175.56328 C2097.83475,1177.98995 2097.83475,1185.15568 2097.83475,1197.06048" id="Oval" transform="translate(2103.834753, 1186.000000) rotate(90.000000) translate(-2103.834753, -1186.000000) "></path>
        </g>
    </g>
</svg>