<?xml version="1.0" standalone="no"?>
<!DOCTYPE svg PUBLIC "-//W3C//DTD SVG 20010904//EN"
 "http://www.w3.org/TR/2001/REC-SVG-20010904/DTD/svg10.dtd">
<svg version="1.0" xmlns="http://www.w3.org/2000/svg"
 width="460.000000pt" height="460.000000pt" viewBox="0 0 460.000000 460.000000"
 preserveAspectRatio="xMidYMid meet">
<metadata>
Created by potrace 1.11, written by Peter Selinger 2001-2013
</metadata>
<g transform="translate(0.000000,460.000000) scale(0.100000,-0.100000)"
fill="#000000" stroke="none">
<path d="M2387 4473 c-4 -3 -7 -985 -7 -2180 l0 -2174 683 3 c676 4 683 4 756
26 332 102 567 347 639 669 16 72 17 186 17 1483 0 1311 -1 1410 -18 1480 -63
266 -219 468 -460 595 -106 56 -192 82 -318 95 -110 11 -1281 14 -1292 3z
m965 -852 l-2 -348 -118 -7 c-64 -4 -135 -11 -157 -16 -22 -5 -40 -8 -41 -7
-1 1 1 25 6 52 5 28 20 124 34 215 56 366 66 423 71 428 10 10 119 30 165 31
l45 1 -3 -349z m595 333 c-3 -3 -12 -4 -19 -1 -8 3 -5 6 6 6 11 1 17 -2 13 -5z
m80 -20 c-3 -3 -12 -4 -19 -1 -8 3 -5 6 6 6 11 1 17 -2 13 -5z m70 -206 c-3
-8 -6 -5 -6 6 -1 11 2 17 5 13 3 -3 4 -12 1 -19z m21 -114 c-3 -14 -5 -12 -10
9 -3 19 -2 25 4 19 6 -6 8 -18 6 -28z m9 -66 c-3 -8 -6 -5 -6 6 -1 11 2 17 5
13 3 -3 4 -12 1 -19z m-30 -90 c-3 -8 -6 -5 -6 6 -1 11 2 17 5 13 3 -3 4 -12
1 -19z m50 -50 c-3 -8 -6 -5 -6 6 -1 11 2 17 5 13 3 -3 4 -12 1 -19z m-120
-94 c-3 -3 -12 -4 -19 -1 -8 3 -5 6 6 6 11 1 17 -2 13 -5z m138 -13 c-3 -6
-11 -11 -16 -11 -5 0 -4 6 3 14 14 16 24 13 13 -3z m-142 -8 c-13 -2 -23 -9
-23 -14 0 -5 -28 -8 -62 -7 l-63 2 55 3 c30 2 59 8 65 14 5 5 18 8 30 8 18 -2
18 -2 -2 -6z m-495 -10 c-32 -2 -84 -2 -115 0 -32 2 -6 3 57 3 63 0 89 -1 58
-3z m270 0 c-26 -2 -71 -2 -100 0 -29 2 -8 3 47 3 55 0 79 -1 53 -3z m311 -19
c9 -8 -55 -2 -74 6 -13 6 -5 7 25 3 25 -3 47 -7 49 -9z m-483 -6 c5 -7 3 -8
-6 -3 -10 6 -11 4 -5 -11 4 -10 10 -29 12 -42 3 -12 8 -24 12 -26 3 -2 5 -204
3 -448 l-3 -443 -24 51 c-22 51 -23 58 -24 417 -2 446 5 554 35 505z m534 2
c0 -5 -10 -10 -22 -9 -22 0 -22 1 -3 9 11 5 21 9 23 9 1 1 2 -3 2 -9z m-1061
-66 c10 -9 -35 -3 -49 6 -11 8 -7 9 15 4 17 -4 32 -8 34 -10z m1056 1 c-35
-16 -74 -20 -59 -6 8 8 42 16 79 19 6 0 -3 -6 -20 -13z m-1090 -15 c3 -5 -1
-10 -9 -10 -9 0 -16 5 -16 10 0 6 4 10 9 10 6 0 13 -4 16 -10z m143 3 c-10 -2
-26 -2 -35 0 -10 3 -2 5 17 5 19 0 27 -2 18 -5z m855 0 c-13 -2 -35 -2 -50 0
-16 2 -5 4 22 4 28 0 40 -2 28 -4z m120 -25 c-7 -46 -13 -48 -11 -4 1 20 5 36
9 36 4 0 5 -15 2 -32z m-805 12 c-15 -4 -51 -4 -80 0 -51 7 -50 8 27 8 56 0
72 -2 53 -8z m565 3 c-24 -2 -62 -2 -85 0 -24 2 -5 4 42 4 47 0 66 -2 43 -4z
m-425 -10 c-16 -2 -40 -2 -55 0 -16 2 -3 4 27 4 30 0 43 -2 28 -4z m59 1 c-3
-3 -12 -4 -19 -1 -8 3 -5 6 6 6 11 1 17 -2 13 -5z m471 -1 c-10 -2 -26 -2 -35
0 -10 3 -2 5 17 5 19 0 27 -2 18 -5z m-20 -1340 c-10 -2 -28 -2 -40 0 -13 2
-5 4 17 4 22 1 32 -1 23 -4z m-111 -9 c-3 -3 -12 -4 -19 -1 -8 3 -5 6 6 6 11
1 17 -2 13 -5z m-117 -1344 c0 -64 -3 -80 -15 -80 -12 0 -15 15 -15 73 0 41 3
77 7 80 17 18 23 0 23 -73z"/>
<path d="M835 4455 c-109 -29 -192 -65 -152 -65 9 0 19 5 22 10 3 6 19 10 35
10 15 0 31 6 33 13 3 6 6 1 6 -12 1 -17 -3 -22 -14 -17 -9 3 -15 0 -15 -10 0
-10 6 -14 15 -10 13 5 15 -98 15 -889 0 -709 -3 -895 -12 -895 -7 0 -85 7
-173 15 -88 8 -168 15 -177 15 -17 0 -18 44 -18 792 l0 792 42 45 c24 25 30
34 13 21 -136 -114 -230 -243 -244 -332 -5 -29 -8 -335 -7 -680 l1 -627 -40
-3 -40 -3 -3 -825 c-2 -567 1 -850 8 -905 50 -359 302 -644 660 -748 73 -21
92 -21 768 -25 l692 -3 -2 323 -3 323 -63 3 -62 3 2 1849 3 1850 -620 -1
c-485 -1 -631 -4 -670 -14z m158 -87 c0 -70 1 -73 4 -18 6 119 -7 110 153 110
l140 0 2 -102 2 -103 3 93 c2 50 8 92 13 92 6 0 11 -41 12 -92 l2 -93 3 88 c3
58 0 94 -8 103 -9 11 -8 14 4 14 8 0 18 -7 21 -16 3 -9 6 -451 6 -984 l0 -969
-21 -6 c-13 -5 -25 -2 -30 6 -4 7 -10 11 -13 8 -3 -2 11 -18 30 -35 18 -17 34
-28 34 -23 0 4 -4 11 -10 14 -12 8 -13 25 -1 25 11 0 22 -40 14 -52 -3 -5 -15
0 -28 12 -25 23 -111 70 -129 70 -6 0 -24 7 -40 15 -15 8 -31 13 -35 10 -5 -2
-23 0 -42 4 -19 5 -51 12 -71 15 l-37 7 -1 807 c0 741 5 1100 18 1087 3 -2 5
-42 5 -87z m581 65 c-2 -16 -1 -20 2 -10 3 9 10 15 15 12 5 -3 6 1 3 9 -5 14
14 16 162 16 l169 0 -2 -168 c-1 -92 -2 -688 -3 -1326 0 -925 -3 -1156 -12
-1149 -7 6 -42 20 -78 33 -58 19 -114 26 -277 30 -13 0 -5 41 11 52 8 5 7 8
-1 8 -10 0 -13 259 -13 1260 0 1056 2 1260 14 1260 9 0 12 -9 10 -27z m-228
-2512 c49 -7 111 -12 137 -10 52 5 56 1 27 -26 -11 -10 -20 -22 -20 -27 0 -5
-7 -16 -15 -24 -8 -9 -15 -21 -14 -27 0 -9 2 -8 6 1 10 25 21 11 16 -20 -2
-18 -4 -53 -4 -78 0 -36 -2 -41 -10 -25 -7 15 -8 7 -5 -30 4 -42 3 -46 -6 -22
-5 15 -14 25 -19 21 -5 -3 -7 -9 -4 -14 3 -4 -2 -21 -10 -36 l-14 -28 -10 25
c-5 13 -10 18 -10 10 -1 -23 -58 -136 -75 -150 -9 -7 -16 -19 -16 -25 0 -7
-13 -25 -30 -41 l-30 -29 -67 13 c-38 7 -144 17 -238 22 -93 5 -173 13 -178
18 -6 6 -2 24 11 45 12 20 37 87 57 148 19 62 55 149 80 193 25 44 50 91 55
105 l10 25 143 0 c78 -1 183 -7 233 -14z m411 -97 c-3 -3 -12 -4 -19 -1 -8 3
-5 6 6 6 11 1 17 -2 13 -5z m56 -1 c-7 -2 -19 -2 -25 0 -7 3 -2 5 12 5 14 0
19 -2 13 -5z m-126 -9 c-3 -3 -12 -4 -19 -1 -8 3 -5 6 6 6 11 1 17 -2 13 -5z
m180 0 c-3 -3 -12 -4 -19 -1 -8 3 -5 6 6 6 11 1 17 -2 13 -5z m-269 -1347 c3
-72 1 -77 -18 -77 -18 0 -20 6 -20 73 0 41 3 77 7 81 18 18 28 -7 31 -77z"/>
<path d="M1024 4436 c-3 -8 -4 -29 -1 -48 3 -30 4 -29 5 9 l2 42 88 4 87 3
-88 2 c-67 2 -89 -1 -93 -12z"/>
<path d="M993 4120 c0 -47 2 -66 4 -42 2 23 2 61 0 85 -2 23 -4 4 -4 -43z"/>
<path d="M1573 4320 c0 -25 2 -35 4 -22 2 12 2 32 0 45 -2 12 -4 2 -4 -23z"/>
<path d="M1460 1779 c0 -5 5 -7 10 -4 6 3 10 8 10 11 0 2 -4 4 -10 4 -5 0 -10
-5 -10 -11z"/>
<path d="M1436 1755 c-9 -26 -7 -32 5 -12 6 10 9 21 6 23 -2 3 -7 -2 -11 -11z"/>
<path d="M1406 1652 c-2 -4 -1 -14 5 -22 7 -12 9 -10 9 8 0 23 -5 28 -14 14z"/>
<path d="M2180 4461 l46 -6 3 -45 c4 -65 11 -63 11 3 l0 57 -52 -2 -53 -1 45
-6z"/>
<path d="M2145 4438 c-3 -7 -4 -823 -3 -1813 l3 -1800 5 1813 c3 996 4 1812 2
1812 -1 0 -5 -6 -7 -12z"/>
<path d="M720 4385 c-7 -9 -10 -18 -6 -22 3 -3 6 0 6 8 0 11 2 11 10 -1 8 -12
10 -11 10 8 0 26 -3 27 -20 7z"/>
<path d="M599 4363 c-13 -10 -41 -26 -61 -37 -20 -10 -39 -25 -42 -32 -8 -20
-1 -17 30 11 15 14 34 25 43 25 9 0 24 9 34 20 17 20 43 28 32 10 -3 -6 1 -7
10 -3 13 5 14 7 3 14 -18 12 -22 11 -49 -8z"/>
<path d="M463 4245 c-7 -8 -13 -16 -13 -19 0 -2 6 -6 13 -9 7 -3 13 5 13 19 1
13 1 24 0 24 0 -1 -7 -7 -13 -15z"/>
<path d="M166 3834 c-4 -9 -4 -19 -1 -22 2 -3 7 3 11 12 4 9 4 19 1 22 -2 3
-7 -3 -11 -12z"/>
<path d="M191 3814 c0 -11 3 -14 6 -6 3 7 2 16 -1 19 -3 4 -6 -2 -5 -13z"/>
<path d="M152 3770 c0 -14 2 -19 5 -12 2 6 2 18 0 25 -3 6 -5 1 -5 -13z"/>
<path d="M142 3715 c0 -16 2 -22 5 -12 2 9 2 23 0 30 -3 6 -5 -1 -5 -18z"/>
<path d="M135 3165 c0 -280 1 -397 2 -258 2 138 2 368 0 510 -1 142 -2 29 -2
-252z"/>
<path d="M175 3200 c0 -245 1 -345 2 -223 2 123 2 323 0 445 -1 123 -2 23 -2
-222z"/>
<path d="M150 2650 c-24 -8 -23 -8 8 -9 20 -1 31 3 27 9 -3 6 -7 10 -8 9 -1
-1 -13 -5 -27 -9z"/>
<path d="M549 2642 c11 -8 9 -11 -10 -15 -22 -5 -22 -5 -1 -4 25 2 32 19 10
25 -10 3 -9 1 1 -6z"/>
<path d="M448 2633 c6 -2 18 -2 25 0 6 3 1 5 -13 5 -14 0 -19 -2 -12 -5z"/>
</g>
</svg>
