<svg xmlns="http://www.w3.org/2000/svg" viewBox="0 0 477.29 149.36"><defs><style>.a{fill:#231f20;}.b{fill:#fff;}</style></defs><title>Ресурс 1</title><polygon class="a" points="202.31 32.95 195.26 32.95 195.26 77.09 223.97 77.09 223.97 70.34 202.31 70.34 202.31 32.95"/><path class="a" d="M367.9,34.55a17.42,17.42,0,0,0-16.4,0A13.93,13.93,0,0,0,346,40.33,18.3,18.3,0,0,0,344,48.91v4.38A18.3,18.3,0,0,0,346,61.87a13.93,13.93,0,0,0,5.52,5.78,17.5,17.5,0,0,0,16.4,0,13.93,13.93,0,0,0,5.52-5.78,18.3,18.3,0,0,0,1.94-8.58V48.91a18.3,18.3,0,0,0-1.94-8.58A13.93,13.93,0,0,0,367.9,34.55ZM364.15,61.6a9.33,9.33,0,0,1-8.9,0,7.65,7.65,0,0,1-2.95-3.21,10.8,10.8,0,0,1-1.06-4.89V48.7a10.83,10.83,0,0,1,1.06-4.89,7.65,7.65,0,0,1,2.95-3.21,9.33,9.33,0,0,1,8.9,0,7.65,7.65,0,0,1,3,3.21,10.83,10.83,0,0,1,1.06,4.89v4.8a10.8,10.8,0,0,1-1.06,4.89A7.65,7.65,0,0,1,364.15,61.6Z"/><path class="a" d="M475.43,57.5a10.77,10.77,0,0,0-4.6-3.71,36.84,36.84,0,0,0-6.65-1.93l-.34-.06-.28,0-.28-.06a.81.81,0,0,1-.19,0,47.88,47.88,0,0,1-5.18-1.24A7.06,7.06,0,0,1,455,48.65a4.24,4.24,0,0,1-1.12-3.18,5.3,5.3,0,0,1,2.24-4.6,11.16,11.16,0,0,1,6.58-1.67,13.63,13.63,0,0,1,4.73.88,19.45,19.45,0,0,1,4.79,2.65l.41.29,4-5.62-.41-.29a26.47,26.47,0,0,0-4.37-2.56A23.38,23.38,0,0,0,467.33,33a23.07,23.07,0,0,0-13.14,1,11.79,11.79,0,0,0-5.46,4.51,13,13,0,0,0-1.88,7.14c0,3.14.69,5.62,2,7.35a10.47,10.47,0,0,0,4.87,3.58,46.43,46.43,0,0,0,7.12,1.69l.38.08a1.41,1.41,0,0,0,.35,0l.11,0a31.69,31.69,0,0,1,4.71,1.16,6.49,6.49,0,0,1,2.82,1.81,4.82,4.82,0,0,1,1.05,3.28,5.07,5.07,0,0,1-2.37,4.49,12.5,12.5,0,0,1-7,1.65,18.5,18.5,0,0,1-6.27-1,16.45,16.45,0,0,1-5.27-3.11l-.39-.34-4.4,5.41.37.32a22.83,22.83,0,0,0,4.63,3,23.35,23.35,0,0,0,5.32,1.82l2.79.59h3.22A23,23,0,0,0,469.7,76a12.24,12.24,0,0,0,5.64-4.45,12.56,12.56,0,0,0,2-7.09A11.8,11.8,0,0,0,475.43,57.5Z"/><polygon class="a" points="420.41 63.95 400.81 32.95 394.21 32.95 394.21 77.06 395.87 77.06 395.87 45.33 400.76 45.33 421.09 77.06 427.41 77.06 427.41 32.95 420.41 32.95 420.41 63.95"/><polygon class="a" points="240.15 77.1 269.19 77.09 269.19 70.34 241.81 70.34 241.81 58.55 265.54 58.55 265.54 51.79 241.81 51.79 241.81 39.71 269.19 39.71 269.19 32.95 240.15 32.95 240.15 77.1"/><polygon class="a" points="318 33.78 317.95 46.51 308.99 66.63 306.48 61.68 293.68 32.95 287.18 32.95 287.18 77.09 294.09 77.09 294.09 49.79 303.59 71.1 308.02 71.1 308.69 71.4 317.95 50.61 317.95 77.09 324.86 77.09 324.86 32.95 318.37 32.95 318 33.78"/><rect class="a" x="348.17" y="75.73" width="23.06" height="1.67"/><path d="M9.9,31.23C.72,36.59,0,48.15,0,48.15V61.9S.72,73.46,9.9,78.82c0,0,9.7,31.23,66.38,31.23s72.9-41.82,72.9-41.82S164,63.28,164,55s-14.86-13.2-14.86-13.2S133,0,76.28,0,9.9,31.23,9.9,31.23Z"/><circle class="b" cx="75.84" cy="55.02" r="45.29" transform="translate(-9.75 16.89) rotate(-11.94)"/><polygon points="102.17 55.02 57.6 30.97 57.6 79.08 102.17 55.02"/><path class="b" d="M26.16,31.84c0-.48-.57-.86-1.05-.86a1,1,0,0,0-1,.86,1.14,1.14,0,0,0,1,1.05A1.22,1.22,0,0,0,26.16,31.84Z"/><path class="b" d="M36.18,16.19c0-.48-.41-.6-.89-.6s-.59.12-.59.6.12.71.59.71S36.18,16.66,36.18,16.19Z"/><path class="b" d="M46.2,8a1,1,0,0,0-1-.88c-.47,0-1,.41-1,.88s.58.67,1,.67S46.2,8.48,46.2,8Z"/><path class="b" d="M31.68,22c0-.47-.65-.6-1.13-.6s-.62.13-.62.6.14.74.62.74S31.68,22.43,31.68,22Z"/><path class="b" d="M25.82,87c0-.83-.75-1.23-1.57-1.23s-1.1.4-1.1,1.23.28,1.11,1.1,1.11S25.82,87.86,25.82,87Z"/><path class="b" d="M19,40.81c0-.82-1-1.1-1.8-1.1s-1.5.28-1.5,1.1.67,1,1.5,1S19,41.63,19,40.81Z"/><path class="b" d="M141.22,66.76a2,2,0,0,0-1.84-1.62c-.82,0-1.28.8-1.28,1.62s.46,1.67,1.28,1.67A2,2,0,0,0,141.22,66.76Z"/><path class="b" d="M139,39.32c0-.82-.24-1.83-1.06-1.83a1.92,1.92,0,0,0-1.6,1.83,1.58,1.58,0,0,0,1.6,1.48C138.71,40.8,139,40.14,139,39.32Z"/><path class="b" d="M124.37,91.56a2.16,2.16,0,0,0-1.75-1.93c-.82,0-1.27,1.11-1.27,1.93s.45,1.17,1.27,1.17S124.37,92.39,124.37,91.56Z"/><path class="b" d="M155.12,49.21c0-.82-.38-1.92-1.2-1.92s-1.33,1.1-1.33,1.92.51,1.88,1.33,1.88S155.12,50,155.12,49.21Z"/><path class="b" d="M129.28,82.82c0-.82-1.13-1.47-2-1.47s-1.14.65-1.14,1.47.32,1.12,1.14,1.12S129.28,83.64,129.28,82.82Z"/><path class="b" d="M20.53,62.45c0-.82-1-1-1.83-1s-1.65.2-1.65,1a1.49,1.49,0,0,0,1.65,1.32C19.52,63.77,20.53,63.28,20.53,62.45Z"/><path class="b" d="M41.91,97.57A1.83,1.83,0,0,0,40.11,96a1.73,1.73,0,0,0-1.72,1.53c0,.82.89,1.27,1.72,1.27S41.91,98.39,41.91,97.57Z"/><path class="b" d="M31.93,80.56a1.42,1.42,0,0,0-1.38-1.51A1.55,1.55,0,0,0,29,80.56a1.8,1.8,0,0,0,1.53,1.78C31.37,82.34,31.93,81.39,31.93,80.56Z"/><path class="b" d="M130,30.11a.91.91,0,0,0-1-.82c-.47,0-1,.34-1,.82s.54.75,1,.75S130,30.58,130,30.11Z"/><path class="b" d="M147.64,55.89c0-.48-.12-.93-.59-.93s-1.11.45-1.11.93.63.94,1.11.94S147.64,56.37,147.64,55.89Z"/><path class="b" d="M130,43.16a1.21,1.21,0,0,0-1-1.1c-.47,0-.64.63-.64,1.1s.17.74.64.74S130,43.64,130,43.16Z"/><path class="b" d="M132.55,54.16a.85.85,0,1,0-1.7,0,.86.86,0,0,0,1.7,0Z"/><path d="M88.1,27.32a.86.86,0,1,0-1.71,0,.86.86,0,0,0,1.71,0Z"/><path d="M47.05,62.69a.85.85,0,1,0-1.7,0,.86.86,0,0,0,1.7,0Z"/><path class="b" d="M107.49,8.87c0-.48-.3-.62-.78-.62s-.85.14-.85.62a.75.75,0,0,0,.85.74A.7.7,0,0,0,107.49,8.87Z"/><path class="b" d="M11.88,58.41a1.15,1.15,0,0,0-1-1c-.48,0-.75.52-.75,1a.77.77,0,0,0,.75.86A1,1,0,0,0,11.88,58.41Z"/><path class="b" d="M139.4,57.55a.81.81,0,0,0-.88-.78.9.9,0,0,0-1,.78,1.05,1.05,0,0,0,1,1A1,1,0,0,0,139.4,57.55Z"/><path class="b" d="M132.65,72c0-.47-.47-.67-1-.67s-.79.2-.79.67.31,1,.79,1A1.06,1.06,0,0,0,132.65,72Z"/><path class="b" d="M12.93,48.59c0-.48-.63-.75-1.1-.75s-.64.27-.64.75.16.78.64.78S12.93,49.07,12.93,48.59Z"/><path class="b" d="M18.29,75.57a1.12,1.12,0,0,0-1.08-.92c-.48,0-.72.44-.72.92a.63.63,0,0,0,.72.71C17.69,76.28,18.29,76,18.29,75.57Z"/><path class="b" d="M116,14.46c0-.48-.17-.83-.65-.83a.73.73,0,0,0-.74.83c0,.47.26,1,.74,1S116,14.93,116,14.46Z"/><path class="b" d="M108.55,95.22c0-.48-.5-.69-1-.69s-1.13.21-1.13.69.65.7,1.13.7S108.55,95.69,108.55,95.22Z"/><path d="M103.22,72.8c0-.48-.5-.68-1-.68s-1.13.2-1.13.68.66.71,1.13.71S103.22,73.27,103.22,72.8Z"/><path class="b" d="M125.76,72.91A.8.8,0,0,0,125,72a.91.91,0,0,0-.92.87c0,.48.44.67.92.67S125.76,73.39,125.76,72.91Z"/><path class="b" d="M121.36,23.68c0-.47-.61-.92-1.09-.92a1,1,0,0,0-1,.92,1,1,0,0,0,1,.9C120.75,24.58,121.36,24.16,121.36,23.68Z"/><path class="b" d="M63.6,6.27c0-.47-.49-.76-1-.76a.8.8,0,0,0-.88.76c0,.48.4,1.1.88,1.1A1.18,1.18,0,0,0,63.6,6.27Z"/><path class="b" d="M23.77,74.7a1.27,1.27,0,0,0-1-1.14c-.48,0-.7.66-.7,1.14s.22,1.07.7,1.07A1.19,1.19,0,0,0,23.77,74.7Z"/><path class="b" d="M32.79,91.56a.84.84,0,0,0-.75-.93,1.1,1.1,0,0,0-1.05.93,1.21,1.21,0,0,0,1.05,1C32.52,92.61,32.79,92,32.79,91.56Z"/><path d="M201.35,108.86l-5.53,15h2.27l1.13-3.29h6.05l1.13,3.29h2.27l-5.53-15Zm-1.44,9.7,2.33-6.8,2.34,6.8Z"/><polygon points="223.54 120.06 216.46 108.86 214.55 108.86 214.55 123.84 216.63 123.84 216.63 112.81 223.7 123.84 225.63 123.84 225.63 108.86 223.54 108.86 223.54 120.06"/><rect x="232.95" y="108.86" width="2.1" height="15"/><polygon points="248.75 118.76 244.35 108.86 242.38 108.86 242.38 123.85 244.43 123.85 244.43 113.72 248.02 121.77 249.48 121.77 253.07 113.52 253.07 123.85 255.12 123.85 255.12 108.86 253.15 108.86 248.75 118.76"/><path d="M264.4,120.56h6.06l1.13,3.29h2.27l-5.53-15h-1.8l-5.53,15h2.27Zm3-8.8,2.34,6.8h-4.68Z"/><polygon points="277.67 110.86 281.91 110.86 281.91 123.85 284.01 123.85 284.01 110.86 288.25 110.86 288.25 108.86 277.67 108.86 277.67 110.86"/><rect x="293.51" y="108.86" width="2.1" height="15"/><path d="M310.66,109.39a5.87,5.87,0,0,0-5.52,0,4.62,4.62,0,0,0-1.85,1.94,6.11,6.11,0,0,0-.66,2.9v4.25a6.11,6.11,0,0,0,.66,2.9,4.56,4.56,0,0,0,1.85,1.94,5.87,5.87,0,0,0,5.52,0,4.64,4.64,0,0,0,1.86-1.94,6.23,6.23,0,0,0,.65-2.9v-4.25a6.23,6.23,0,0,0-.65-2.9A4.7,4.7,0,0,0,310.66,109.39Zm.36,9.16a3.86,3.86,0,0,1-.39,1.78,2.86,2.86,0,0,1-1.09,1.19,3.18,3.18,0,0,1-1.64.42,3.12,3.12,0,0,1-1.63-.42,2.81,2.81,0,0,1-1.1-1.19,4,4,0,0,1-.38-1.78v-4.39a4,4,0,0,1,.38-1.78,2.81,2.81,0,0,1,1.1-1.19,3.11,3.11,0,0,1,1.63-.41,3.17,3.17,0,0,1,1.64.41,2.86,2.86,0,0,1,1.09,1.19,3.89,3.89,0,0,1,.39,1.78Z"/><polygon points="329.18 108.86 329.18 120.06 322.09 108.86 320.19 108.86 320.19 123.84 322.27 123.84 322.27 112.81 329.33 123.84 331.26 123.84 331.26 108.86 329.18 108.86"/><path d="M204.62,141.43a12.34,12.34,0,0,0-2.27-.65l-.11,0-.12,0H202l-.07,0a14,14,0,0,1-1.82-.44,2.75,2.75,0,0,1-1.1-.65,1.67,1.67,0,0,1-.44-1.22h0a2,2,0,0,1,.86-1.74,4,4,0,0,1,2.38-.61,4.92,4.92,0,0,1,1.71.32,6.92,6.92,0,0,1,1.71.94l1.19-1.67a8.38,8.38,0,0,0-1.49-.87,7.27,7.27,0,0,0-1.53-.52,7.77,7.77,0,0,0-4.46.34,3.84,3.84,0,0,0-1.82,1.5,4.3,4.3,0,0,0-.63,2.37h0a3.88,3.88,0,0,0,.67,2.45,3.47,3.47,0,0,0,1.62,1.19,15.36,15.36,0,0,0,2.45.58l.15,0h.13a12,12,0,0,1,1.67.41,2.49,2.49,0,0,1,1.05.68,1.83,1.83,0,0,1,.41,1.25h0a1.93,1.93,0,0,1-.9,1.7,4.51,4.51,0,0,1-2.52.61A6.46,6.46,0,0,1,199,147a5.67,5.67,0,0,1-1.89-1.11l-1.31,1.61a7.59,7.59,0,0,0,1.57,1,7.73,7.73,0,0,0,1.81.62l1,.21h1.09a7.75,7.75,0,0,0,3-.51,4,4,0,0,0,1.88-1.49,4.08,4.08,0,0,0,.65-2.35v0a3.87,3.87,0,0,0-.61-2.32A3.59,3.59,0,0,0,204.62,141.43Z"/><polygon points="211.3 136.21 215.54 136.21 215.54 149.2 217.64 149.2 217.64 136.21 221.88 136.21 221.88 134.21 211.3 134.21 211.3 136.21"/><path d="M235.37,143.85a3.58,3.58,0,0,1-.83,2.54,3.51,3.51,0,0,1-4.67,0,3.63,3.63,0,0,1-.83-2.54v-9.64h-2.1v9.57a6.63,6.63,0,0,0,.62,3,4.27,4.27,0,0,0,1.8,1.91,5.71,5.71,0,0,0,2.84.66,5.77,5.77,0,0,0,2.85-.66,4.29,4.29,0,0,0,1.81-1.91,6.76,6.76,0,0,0,.62-3v-9.57h-2.11Z"/><path d="M252.43,134.83a7,7,0,0,0-3.08-.62h-4.76v15h4.75a7,7,0,0,0,3.09-.63,4.38,4.38,0,0,0,1.95-1.83,5.9,5.9,0,0,0,.67-2.91v-4.25a5.85,5.85,0,0,0-.67-2.91A4.35,4.35,0,0,0,252.43,134.83Zm.47,9.08a3.17,3.17,0,0,1-.92,2.43,3.59,3.59,0,0,1-2.57.86H246.7v-11h2.71a3.55,3.55,0,0,1,2.57.86,3.17,3.17,0,0,1,.92,2.43Z"/><rect x="262.07" y="134.21" width="2.1" height="15"/><path d="M279.22,134.74a5.89,5.89,0,0,0-5.53,0,4.62,4.62,0,0,0-1.85,1.94,6.11,6.11,0,0,0-.66,2.9v4.25a6.11,6.11,0,0,0,.66,2.9,4.68,4.68,0,0,0,1.85,1.94,5.89,5.89,0,0,0,5.53,0,4.68,4.68,0,0,0,1.85-1.94,6.11,6.11,0,0,0,.65-2.9v-4.25a6.11,6.11,0,0,0-.65-2.9A4.62,4.62,0,0,0,279.22,134.74Zm.35,9.16a3.89,3.89,0,0,1-.39,1.78,2.86,2.86,0,0,1-1.09,1.19,3.47,3.47,0,0,1-3.27,0,2.79,2.79,0,0,1-1.09-1.19,3.89,3.89,0,0,1-.39-1.78v-4.39a3.86,3.86,0,0,1,.39-1.78,2.74,2.74,0,0,1,1.09-1.19,3.39,3.39,0,0,1,3.27,0,2.8,2.8,0,0,1,1.09,1.19,3.86,3.86,0,0,1,.39,1.78Z"/></svg>