<?xml version="1.0" encoding="UTF-8"?>
<!DOCTYPE svg PUBLIC "-//W3C//DTD SVG 1.1//EN" "http://www.w3.org/Graphics/SVG/1.1/DTD/svg11.dtd">
<svg xmlns="http://www.w3.org/2000/svg" xmlns:xlink="http://www.w3.org/1999/xlink">
    <symbol id="dots" viewBox="0 0 16 4">
        <path fill-rule="evenodd" clip-rule="evenodd" d="M2 4C3.10461 4 4 3.10449 4 2C4 0.895508 3.10461 0 2 0C0.895386 0 0 0.895508 0 2C0 3.10449 0.895386 4 2 4ZM8 4C9.10461 4 10 3.10449 10 2C10 0.895508 9.10461 0 8 0C6.89539 0 6 0.895508 6 2C6 3.10449 6.89539 4 8 4ZM16 2C16 3.10449 15.1046 4 14 4C12.8954 4 12 3.10449 12 2C12 0.895508 12.8954 0 14 0C15.1046 0 16 0.895508 16 2Z" fill="white"/>
    </symbol>

    <symbol id="star" viewBox="0 0 18 16">
        <path fill-rule="evenodd" clip-rule="evenodd" d="M5.91772 9.77148L3.9718 16L8.97058 12.0225L14.2101 15.7485L14.1925 15.6958L14.0879 15.3813L14.4127 15.6045L12.2935 9.7041L17.0312 6.55664L11.1284 6.48584L8.97058 0L6.95984 6.43604L0.955078 6.36377L5.91772 9.77148Z" fill="#858E98"/>
    </symbol>

    <symbol id="halfstar" viewBox="0 0 8 16">
        <defs>
            <mask id="mask0" mask-type="alpha" maskUnits="userSpaceOnUse" x="0" y="0" width="8" height="16">
                <rect width="8" height="16" fill="#C4C4C4"/>
            </mask>
        </defs>
        <g mask="url(#mask0)">
            <path fill-rule="evenodd" clip-rule="evenodd" d="M4.91776 9.7715L2.97185 16L7.97057 12.0226L13.2101 15.7485L13.1925 15.6957L13.0879 15.3814L13.4127 15.6044L11.2935 9.7044L16.0313 6.55687L10.1285 6.48605L7.97057 0L5.95983 6.43603L-0.0449219 6.36398L4.91776 9.7715Z" fill="#858E98"/>
        </g>
    </symbol>
</svg>