<?xml version="1.0" encoding="UTF-8"?>
<svg width="300px" height="53px" viewBox="0 0 300 53" version="1.1" xmlns="http://www.w3.org/2000/svg" xmlns:xlink="http://www.w3.org/1999/xlink">
    <!-- Generator: Sketch 52 (66869) - http://www.bohemiancoding.com/sketch -->
    <title>Group 9</title>
    <desc>Created with Sketch.</desc>
    <g id="main" stroke="none" stroke-width="1" fill="none" fill-rule="evenodd">
        <g id="main_L" transform="translate(-349.000000, -5511.000000)">
            <g id="ico_offer" transform="translate(200.000000, 5427.000000)">
                <g id="Group-9" transform="translate(149.000000, 84.000000)">
                    <path d="M11.7,51.975 L0,51.975 L0,0.975 L11.7,0.975 L11.7,51.975 Z M61.7624999,3.75 L58.2374999,11.85 C55.5374864,10.9999958 53.5250066,10.4250015 52.1999999,10.125 C50.8749933,9.8249985 49.2875092,9.675 47.4374999,9.675 C45.0874882,9.675 42.9000101,10.374993 40.8749999,11.775 C38.8499898,13.175007 37.2375059,15.1624871 36.0374999,17.7375 C34.8374939,20.3125129 34.2374999,23.2749833 34.2374999,26.625 C34.2374999,29.825016 34.8124942,32.6874874 35.9624999,35.2125 C37.1125057,37.7375126 38.6874899,39.7124929 40.6874999,41.1375 C42.6875099,42.5625071 44.9374874,43.275 47.4374999,43.275 C50.9875177,43.275 54.4624829,42.4250085 57.8624999,40.725 L62.2874999,49.425 C60.3874904,50.5250055 58.0500138,51.3874969 55.2749999,52.0125 C52.4999861,52.6375031 49.9125119,52.95 47.5124999,52.95 C42.2124734,52.95 37.6500191,51.8250112 33.8249999,49.575 C29.9999808,47.3249888 27.0875099,44.2125199 25.0874999,40.2375 C23.0874899,36.2624801 22.0874999,31.7500253 22.0874999,26.7 C22.0874999,21.5499743 23.1624892,16.9500203 25.3124999,12.9 C27.4625107,8.84997975 30.4624807,5.68751138 34.3124999,3.4125 C38.1625192,1.13748863 42.5624752,0 47.5124999,0 C49.7125109,0 52.1374867,0.32499675 54.7874999,0.975 C57.4375132,1.62500325 59.7624899,2.549994 61.7624999,3.75 Z" id="ICO" fill="#454545"></path>
                    <path d="M91.5,5 C79.6258779,5 70,14.6258779 70,26.5 C70,38.3741221 79.6258779,48 91.5,48 L273.5,48 C285.374122,48 295,38.3741221 295,26.5 C295,14.6258779 285.374122,5 273.5,5 L91.5,5 Z" id="Rectangle-14" stroke="#454545" stroke-width="10"></path>
                </g>
            </g>
        </g>
    </g>
</svg>