<svg version="1.0" xmlns="http://www.w3.org/2000/svg" width="933.333" height="933.333" viewBox="0 0 700 700"><path d="M135.5 1.5C69 11.9 18 60.4 2.8 127.7.6 137.4.5 138.4.3 232c-.3 92.5-.3 94.6 1.6 97.7 1.1 1.8 3.2 4 4.8 5 2.6 1.7 10.1 1.8 161.4 1.8h158.8l2.7-2.1c1.5-1.1 3.7-3.3 4.8-4.8l2.1-2.7V168.1c0-151.3-.1-158.8-1.8-161.4-1-1.6-3.2-3.7-5-4.7C326.6.1 324 0 235 .1c-68.1.1-93.5.4-99.5 1.4zm56.7 67.4C239.1 81.1 270 120.5 270 168c0 28.2-9.9 51.9-29.9 72.1-14.9 14.9-31.2 23.8-51.6 28-16.2 3.4-37.9 2.1-52.7-3-48.1-16.7-76.7-64.6-68.2-114.2 7.6-44.4 41.9-77.3 87.9-84.3 7-1 29.2.3 36.7 2.3z"/><path d="M176 154.7l-21.4 22.6-7.6-8.2c-4.1-4.5-8-8.1-8.5-8.1-.6 0-4.2 3.1-7.9 6.9l-6.9 7 3.3 3.8c1.8 2.1 7.7 8.4 13.2 14 9.6 10.1 10 10.3 14.4 10.3 5.5 0 4.3 1.1 35.3-32l23-24.5-4.2-4.3c-2.3-2.4-5.8-5.7-7.8-7.2l-3.6-2.9-21.3 22.6zM371.5.9c-3.1 1.3-6.4 5.4-7.5 9.2-.6 2.1-1 60.7-1 158.8 0 152.9 0 155.5 2 159.6 1.1 2.2 3.4 4.9 5.2 6 3.3 2 5.7 2 161.8 2 151.2 0 158.7-.1 161.3-1.8 1.6-1 3.7-3.2 4.8-5 1.9-3.1 1.9-5.1 1.6-98.2-.3-93.4-.3-95.2-2.5-104.3-10.1-43.3-33.4-77.5-68.6-100.9C612 15.2 594.6 8 572.5 2.7 563.7.6 561.4.6 468.5.3c-52.2-.1-95.9.2-97 .6zM9.5 364.1c-1.7.4-4.4 2.2-6 3.9l-3 3.1-.3 90.7C0 522.9.3 555.3 1 561c4.5 34.8 20.7 67.5 45.8 92.4 12.8 12.7 26 22.3 40.7 29.5 13.9 6.9 22.6 10.1 38 13.8l11 2.7 95 .3c93.1.3 95.1.3 98.2-1.6 1.8-1.1 4-3.2 5-4.8 1.7-2.6 1.8-10.3 2.1-160.2.2-155.4.2-157.5-1.8-161.5-1.1-2.3-3.4-5-5.2-6.1-3.2-2-5.8-2-160.3-2.2-89.3-.1-158.3.3-160 .8zM373.4 364.1c-4.1 1.2-8.2 5.4-9.4 9.8-.8 2.5-1 53.4-.8 160.1.3 149 .4 156.7 2.1 159.3 1 1.6 3.2 3.7 5 4.7 3.1 1.9 5.8 2 93.4 2 59.4 0 92.8-.4 98-1.1 49.6-6.9 93.1-36.5 118.2-80.4 9.3-16.3 16.6-38.3 19.1-57.5.7-5.7 1-38.1.8-99.2l-.3-90.7-2.9-3c-1.7-1.7-4.6-3.6-6.5-4.1-4.6-1.3-312.3-1.2-316.7.1z"/></svg>