<?xml version="1.0" standalone="no"?>
<!DOCTYPE svg PUBLIC "-//W3C//DTD SVG 20010904//EN"
 "http://www.w3.org/TR/2001/REC-SVG-20010904/DTD/svg10.dtd">
<svg version="1.0" xmlns="http://www.w3.org/2000/svg"
 width="700.000000pt" height="700.000000pt" viewBox="0 0 700.000000 700.000000"
 preserveAspectRatio="xMidYMid meet">
<metadata>
Created by potrace 1.11, written by Peter Selinger 2001-2013
</metadata>
<g transform="translate(0.000000,700.000000) scale(0.100000,-0.100000)"
fill="#000000" stroke="none">
<path d="M1355 6985 c-665 -104 -1175 -589 -1327 -1262 -22 -97 -23 -107 -25
-1043 -3 -925 -3 -946 16 -977 11 -18 32 -40 48 -50 26 -17 101 -18 1614 -18
l1588 0 27 21 c15 11 37 33 48 48 l21 27 0 1588 c0 1513 -1 1588 -18 1614 -10
16 -32 37 -50 47 -31 19 -57 20 -947 19 -681 -1 -935 -4 -995 -14z m567 -674
c469 -122 778 -516 778 -991 0 -282 -99 -519 -299 -721 -149 -149 -312 -238
-516 -280 -162 -34 -379 -21 -527 30 -481 167 -767 646 -682 1142 76 444 419
773 879 843 70 10 292 -3 367 -23z"/>
<path d="M1760 5453 l-214 -226 -76 82 c-41 45 -80 81 -85 81 -6 0 -42 -31
-79 -69 l-69 -70 33 -38 c18 -21 77 -84 132 -140 96 -101 100 -103 144 -103
55 0 43 -11 353 320 l230 245 -42 43 c-23 24 -58 57 -78 72 l-36 29 -213 -226z"/>
<path d="M3715 6991 c-31 -13 -64 -54 -75 -92 -6 -21 -10 -607 -10 -1588 0
-1529 0 -1555 20 -1596 11 -22 34 -49 52 -60 33 -20 57 -20 1618 -20 1512 0
1587 1 1613 18 16 10 37 32 48 50 19 31 19 51 16 982 -3 934 -3 952 -25 1043
-101 433 -334 775 -686 1009 -166 111 -340 183 -561 236 -88 21 -111 21 -1040
24 -522 1 -959 -2 -970 -6z"/>
<path d="M95 3359 c-17 -4 -44 -22 -60 -39 l-30 -31 -3 -907 c-2 -611 1 -935
8 -992 45 -348 207 -675 458 -924 128 -127 260 -223 407 -295 139 -69 226
-101 380 -138 l110 -27 950 -3 c931 -3 951 -3 982 16 18 11 40 32 50 48 17 26
18 103 21 1602 2 1554 2 1575 -18 1615 -11 23 -34 50 -52 61 -32 20 -58 20
-1603 22 -893 1 -1583 -3 -1600 -8z"/>
<path d="M3734 3359 c-41 -12 -82 -54 -94 -98 -8 -25 -10 -534 -8 -1601 3
-1490 4 -1567 21 -1593 10 -16 32 -37 50 -47 31 -19 58 -20 934 -20 594 0 928
4 980 11 496 69 931 365 1182 804 93 163 166 383 191 575 7 57 10 381 8 992
l-3 907 -29 30 c-17 17 -46 36 -65 41 -46 13 -3123 12 -3167 -1z"/>
</g>
</svg>
