<?xml version="1.0" standalone="no"?>
<!DOCTYPE svg PUBLIC "-//W3C//DTD SVG 20010904//EN"
 "http://www.w3.org/TR/2001/REC-SVG-20010904/DTD/svg10.dtd">
<svg version="1.0" xmlns="http://www.w3.org/2000/svg"
 width="460.000000pt" height="460.000000pt" viewBox="0 0 460.000000 460.000000"
 preserveAspectRatio="xMidYMid meet">
<metadata>
Created by potrace 1.11, written by Peter Selinger 2001-2013
</metadata>
<g transform="translate(0.000000,460.000000) scale(0.100000,-0.100000)"
fill="#000000" stroke="none">
<path d="M3607 4497 c7 -12 -140 -147 -154 -142 -7 2 -10 -2 -6 -11 4 -10 -2
-17 -16 -21 -13 -3 -21 -13 -21 -26 0 -11 -3 -18 -6 -14 -6 5 -47 -29 -122
-101 l-25 -24 -59 22 -60 22 -32 -30 c-93 -89 -152 -142 -158 -142 -14 0 -9
-23 10 -43 16 -19 16 -20 -5 -8 -34 17 -45 14 -93 -30 -25 -22 -55 -49 -66
-60 -13 -12 -29 -17 -40 -13 -15 4 -16 4 -5 -4 11 -8 7 -16 -23 -42 l-37 -33
22 -23 c13 -13 17 -24 11 -24 -6 0 -14 5 -17 10 -11 18 -44 10 -73 -17 -24
-24 -91 -84 -169 -151 -29 -25 -29 -33 2 -62 14 -13 23 -30 21 -37 -3 -6 0
-10 7 -8 7 2 39 -29 72 -69 33 -41 69 -76 80 -80 10 -3 16 -8 12 -12 -4 -4 12
-28 36 -53 47 -51 139 -158 147 -172 12 -18 368 -179 384 -173 10 4 18 0 22
-11 9 -23 366 -195 404 -195 18 0 110 91 110 109 0 6 7 11 15 11 8 0 15 3 15
8 0 4 21 31 46 60 26 29 44 55 42 58 -3 2 -50 -47 -104 -110 -55 -64 -107
-115 -117 -115 -11 -1 -15 3 -11 11 4 7 3 8 -5 4 -16 -10 -53 3 -45 16 4 7 2
8 -4 4 -6 -4 -21 -2 -33 5 l-22 12 24 13 c13 7 20 13 16 14 -5 0 -17 -5 -28
-11 -23 -12 -62 -2 -53 13 4 7 2 8 -5 4 -15 -10 -122 45 -114 58 4 5 0 7 -8 4
-8 -3 -25 -1 -38 3 l-24 9 8 128 c4 70 7 135 7 145 0 9 5 17 11 17 7 0 6 4 -3
10 -10 6 -11 12 -5 19 6 6 68 -17 174 -66 109 -50 167 -71 173 -65 6 6 16 9
22 8 6 -1 -4 4 -21 12 -20 9 -33 22 -33 33 0 11 -5 19 -11 19 -5 0 -7 -4 -4
-10 12 -20 -25 -9 -117 34 -51 24 -105 47 -120 51 -16 4 -28 11 -28 16 0 5 -7
9 -16 9 -15 0 -16 11 -10 92 3 50 6 117 6 149 0 53 2 58 28 68 19 8 20 10 5 7
-50 -9 -29 30 71 132 56 57 93 100 84 96 -21 -7 -25 25 -6 44 9 9 9 12 0 12
-7 0 -12 6 -12 14 0 8 -23 23 -52 35 -29 11 -46 20 -38 21 12 0 11 4 -4 15
-11 8 -28 12 -38 9 -11 -3 -58 11 -110 32 -69 29 -86 40 -72 45 16 7 17 8 2 8
-46 2 -22 32 166 204 30 28 53 28 107 1 14 -7 85 -36 157 -64 l132 -51 0 -36
c0 -32 -11 -47 -105 -143 -62 -63 -105 -114 -105 -126 1 -18 1 -18 11 -1 11
19 26 17 84 -8 98 -42 276 -115 283 -115 5 0 16 -6 25 -13 17 -12 17 -20 -3
-157 -24 -174 -24 -160 -2 -159 9 0 12 3 5 5 -7 3 -9 12 -6 20 7 20 40 287 36
296 -2 3 -34 16 -71 29 -76 25 -272 110 -219 94 57 -16 69 -15 30 4 -23 10
-52 17 -65 14 -19 -4 -20 -3 -8 7 12 9 11 10 -6 5 -16 -4 -23 0 -27 14 -4 15
17 41 84 105 48 47 84 86 79 86 -5 0 -8 12 -8 28 1 59 -2 87 -10 75 -6 -9 -14
-9 -37 1 -17 8 -51 21 -78 31 -28 10 -44 21 -41 27 5 7 2 8 -5 3 -7 -4 -23 -3
-34 3 -12 6 -30 13 -40 16 -11 3 -15 11 -11 17 4 8 3 9 -5 5 -14 -9 -53 2 -46
14 3 4 -2 11 -11 14 -10 4 -13 2 -8 -6 4 -7 3 -8 -4 -4 -7 4 -12 13 -12 19 0
13 171 174 217 204 16 10 14 11 -14 10 -17 -1 -29 -6 -26 -10z m-392 -503 c33
-14 111 -45 173 -71 l112 -45 0 -42 c0 -39 -5 -47 -109 -150 l-109 -109 -7
-128 c-5 -84 -12 -132 -20 -139 -11 -9 -10 -16 1 -40 12 -23 13 -44 4 -112 -5
-45 -10 -108 -10 -139 0 -38 -5 -61 -15 -69 -13 -11 -15 -8 -15 14 0 14 -4 26
-9 26 -5 0 -7 -9 -4 -21 6 -20 5 -20 -33 -4 -22 9 -45 19 -51 22 -7 3 -10 10
-6 16 3 6 1 7 -6 3 -6 -4 -22 -1 -34 6 -12 8 -43 22 -70 32 -28 10 -44 22 -41
28 4 7 2 8 -4 4 -6 -3 -26 1 -44 11 l-33 18 2 135 c2 74 5 140 7 147 3 6 0 14
-7 16 -8 3 -6 7 4 11 10 5 73 -18 163 -58 81 -36 150 -66 155 -66 5 0 14 6 20
14 9 11 9 16 0 22 -8 5 -9 3 -4 -6 4 -7 4 -11 -1 -9 -5 3 -29 14 -54 26 -25
12 -85 41 -135 64 -49 24 -96 43 -102 42 -7 0 -13 5 -13 13 0 8 -6 11 -15 8
-13 -5 -15 17 -15 168 l0 175 82 74 c46 41 98 89 118 106 19 18 42 32 50 32 8
1 42 -11 75 -25z m185 -54 c0 -5 -4 -10 -10 -10 -5 0 -10 5 -10 10 0 6 5 10
10 10 6 0 10 -4 10 -10z"/>
<path d="M2900 3770 c0 -5 7 -10 16 -10 8 0 12 5 9 10 -3 6 -10 10 -16 10 -5
0 -9 -4 -9 -10z"/>
<path d="M3232 3585 c0 -11 4 -31 8 -45 6 -20 8 -21 8 -5 0 11 -4 31 -8 45 -6
20 -8 21 -8 5z"/>
<path d="M3221 3494 c0 -11 3 -14 6 -6 3 7 2 16 -1 19 -3 4 -6 -2 -5 -13z"/>
<path d="M2985 3460 c-3 -6 1 -7 9 -4 18 7 21 14 7 14 -6 0 -13 -4 -16 -10z"/>
<path d="M3212 3380 c0 -14 2 -19 5 -12 2 6 2 18 0 25 -3 6 -5 1 -5 -13z"/>
<path d="M2940 3366 c0 -2 9 -6 20 -9 11 -3 18 -1 14 4 -5 9 -34 13 -34 5z"/>
<path d="M3088 3293 c7 -3 16 -2 19 1 4 3 -2 6 -13 5 -11 0 -14 -3 -6 -6z"/>
<path d="M3137 3279 c7 -7 15 -10 18 -7 3 3 -2 9 -12 12 -14 6 -15 5 -6 -5z"/>
<path d="M3206 3233 c3 -15 8 -30 11 -33 3 -3 3 5 0 18 -4 18 -2 22 9 18 21
-8 17 2 -5 14 -18 9 -19 7 -15 -17z"/>
<path d="M3216 3175 c-3 -9 -6 -22 -5 -28 0 -7 5 -1 10 12 5 13 8 26 5 28 -2
2 -6 -3 -10 -12z"/>
<path d="M3010 3056 c29 -17 40 -20 40 -8 0 5 -6 9 -12 9 -7 0 -22 4 -33 7
-13 5 -12 2 5 -8z"/>
<path d="M3211 3014 c0 -11 3 -14 6 -6 3 7 2 16 -1 19 -3 4 -6 -2 -5 -13z"/>
<path d="M3675 4493 c6 -6 81 -37 168 -69 l159 -59 -5 -44 c-5 -41 -13 -53
-101 -138 -84 -83 -109 -113 -91 -113 3 0 14 5 24 12 15 9 50 -1 202 -62 101
-40 185 -74 187 -75 3 -2 -31 -218 -44 -287 -5 -22 -2 -28 13 -28 14 0 15 2 4
9 -8 5 -10 14 -5 22 4 7 9 25 10 39 3 29 20 136 32 201 l9 47 -66 29 c-36 17
-90 38 -119 47 -28 10 -50 21 -47 26 3 5 0 12 -6 16 -8 5 -9 3 -4 -5 5 -9 2
-12 -11 -9 -11 2 -18 9 -17 16 2 6 -3 9 -11 6 -21 -8 -86 23 -86 41 0 9 33 49
73 88 69 69 72 74 72 119 l0 47 -55 25 c-30 14 -68 28 -85 32 -16 4 -34 10
-40 14 -5 5 -37 17 -70 28 -33 11 -69 23 -80 27 -13 6 -17 5 -10 -2z"/>
<path d="M3960 4416 c0 -2 7 -7 16 -10 8 -3 12 -2 9 4 -6 10 -25 14 -25 6z"/>
<path d="M4046 4323 c-16 -13 -26 -27 -23 -30 3 -3 16 6 29 20 l23 24 130 -49
c72 -27 156 -59 188 -71 l58 -22 -6 -45 c-6 -44 -9 -63 -41 -225 -8 -44 -22
-87 -30 -96 -12 -13 -12 -18 -3 -21 10 -3 6 -41 -15 -162 -15 -87 -26 -160
-23 -163 6 -5 16 44 43 197 23 136 24 141 12 134 -6 -4 -8 -1 -4 7 3 8 9 22
12 32 4 9 9 17 13 17 3 0 6 10 7 23 1 29 33 221 44 262 11 44 -4 58 -95 85
-34 11 -137 50 -210 80 -67 28 -80 28 -109 3z"/>
<path d="M3305 3986 c28 -14 55 -25 60 -25 15 0 -56 36 -85 43 -14 3 -2 -5 25
-18z"/>
<path d="M4190 3986 c0 -2 7 -7 16 -10 8 -3 12 -2 9 4 -6 10 -25 14 -25 6z"/>
<path d="M3454 3926 c11 -9 24 -16 30 -16 12 0 7 5 -24 19 -24 11 -24 11 -6
-3z"/>
<path d="M3500 3906 c0 -2 7 -7 16 -10 8 -3 12 -2 9 4 -6 10 -25 14 -25 6z"/>
<path d="M3775 3792 c13 -13 135 -61 135 -53 0 3 -28 17 -62 31 -88 35 -84 34
-73 22z"/>
<path d="M3928 3728 c5 -5 16 -8 23 -6 8 3 3 7 -10 11 -17 4 -21 3 -13 -5z"/>
<path d="M4146 3581 c-16 -17 -16 -19 0 -25 11 -4 14 -13 10 -29 -3 -12 -13
-69 -21 -127 -18 -118 -32 -177 -43 -182 -4 -2 -17 -15 -29 -30 -39 -52 -146
-168 -154 -168 -9 0 -2 121 11 170 14 59 20 124 12 136 -4 6 -13 4 -24 -8 -14
-14 -15 -19 -3 -25 12 -7 10 -30 -7 -156 -12 -81 -18 -150 -15 -154 11 -11
210 205 230 249 6 16 15 28 19 28 11 0 40 30 112 114 33 39 64 73 68 74 5 2 8
11 8 20 0 11 -3 13 -8 6 -8 -13 -84 -100 -137 -159 -20 -21 -38 -36 -40 -33
-3 3 3 61 14 129 16 104 23 189 16 189 -1 0 -10 -8 -19 -19z m-216 -271 c0 -5
-5 -10 -11 -10 -5 0 -7 5 -4 10 3 6 8 10 11 10 2 0 4 -4 4 -10z"/>
<path d="M3548 3493 c7 -3 16 -2 19 1 4 3 -2 6 -13 5 -11 0 -14 -3 -6 -6z"/>
<path d="M3580 3486 c0 -2 7 -7 16 -10 8 -3 12 -2 9 4 -6 10 -25 14 -25 6z"/>
<path d="M3645 3450 c3 -5 11 -10 16 -10 6 0 7 5 4 10 -3 6 -11 10 -16 10 -6
0 -7 -4 -4 -10z"/>
<path d="M3692 3392 c1 -43 2 -44 5 -10 3 24 10 38 21 40 13 3 12 5 -5 10 -22
6 -23 3 -21 -40z"/>
<path d="M3705 3320 c-4 -17 -5 -34 -2 -36 2 -3 7 10 11 27 8 42 0 50 -9 9z"/>
<path d="M3518 3228 c5 -5 16 -8 23 -6 8 3 3 7 -10 11 -17 4 -21 3 -13 -5z"/>
<path d="M3468 3223 c6 -2 18 -2 25 0 6 3 1 5 -13 5 -14 0 -19 -2 -12 -5z"/>
<path d="M3500 3206 c0 -2 7 -7 16 -10 8 -3 12 -2 9 4 -6 10 -25 14 -25 6z"/>
<path d="M3577 3179 c7 -7 15 -10 18 -7 3 3 -2 9 -12 12 -14 6 -15 5 -6 -5z"/>
<path d="M3691 3173 c-1 -12 -9 -24 -18 -26 -17 -4 -17 -5 0 -6 19 -1 32 21
24 41 -3 7 -6 3 -6 -9z"/>
<path d="M3605 3060 c-3 -5 1 -10 10 -10 9 0 13 5 10 10 -3 6 -8 10 -10 10 -2
0 -7 -4 -10 -10z"/>
<path d="M3342 2970 c0 -14 2 -19 5 -12 2 6 2 18 0 25 -3 6 -5 1 -5 -13z"/>
<path d="M3662 2890 c0 -19 2 -27 5 -17 2 9 2 25 0 35 -3 9 -5 1 -5 -18z"/>
<path d="M3610 2856 c0 -8 4 -17 9 -20 5 -4 7 3 4 14 -6 23 -13 26 -13 6z"/>
<path d="M3651 2824 c0 -11 3 -14 6 -6 3 7 2 16 -1 19 -3 4 -6 -2 -5 -13z"/>
<path d="M3651 2784 c0 -11 3 -14 6 -6 3 7 2 16 -1 19 -3 4 -6 -2 -5 -13z"/>
<path d="M3388 2783 c7 -3 16 -2 19 1 4 3 -2 6 -13 5 -11 0 -14 -3 -6 -6z"/>
<path d="M1510 2340 c-368 -21 -752 -206 -989 -475 -73 -83 -107 -133 -156
-228 -58 -111 -66 -134 -89 -257 l-26 -135 19 -135 c18 -129 21 -140 81 -260
60 -121 66 -129 173 -231 102 -97 125 -114 252 -180 136 -71 145 -74 315 -109
l175 -36 182 8 c178 7 186 9 355 57 154 44 189 58 325 133 139 75 164 94 277
201 110 103 134 132 201 241 67 109 80 140 111 253 35 125 36 131 31 266 -5
136 -6 142 -52 261 -41 109 -56 135 -128 225 -164 204 -401 335 -701 386 -145
26 -160 26 -356 15z m57 -136 c92 -52 175 -103 184 -112 9 -9 40 -61 69 -115
l52 -97 -143 -139 -142 -138 11 -33 c12 -32 9 -50 -7 -50 -5 0 -36 42 -71 94
-60 92 -65 96 -163 155 -203 121 -260 157 -261 166 -1 14 278 364 291 365 6 0
87 -43 180 -96z m777 -711 l48 -98 -29 -24 c-34 -29 -296 -253 -303 -258 -8
-7 42 -40 127 -85 46 -24 83 -47 83 -51 0 -4 -57 -66 -126 -137 -108 -110
-135 -133 -182 -150 -98 -37 -96 -38 -222 45 -67 44 -121 73 -131 70 -9 -3
-76 12 -150 34 -74 22 -207 61 -295 87 l-162 47 27 81 c15 45 47 143 71 219
28 87 49 137 57 137 42 0 383 -95 468 -130 55 -23 101 -43 102 -44 2 -2 -35
-86 -82 -189 -47 -103 -85 -191 -85 -197 0 -5 8 -10 18 -10 12 1 52 62 131
200 100 175 116 199 130 188 9 -7 43 -36 77 -65 34 -29 69 -53 78 -53 9 0 16
-5 16 -12 0 -6 3 -9 6 -6 6 7 -100 168 -138 208 -12 14 -61 68 -107 120 -47
52 -100 111 -119 131 l-33 36 188 157 188 158 151 -155 c139 -144 154 -163
198 -254z"/>
<path d="M825 2260 c-16 -7 -17 -9 -3 -9 9 -1 20 4 23 9 7 11 7 11 -20 0z"/>
<path d="M1168 143 c7 -3 16 -2 19 1 4 3 -2 6 -13 5 -11 0 -14 -3 -6 -6z"/>
</g>
</svg>
