<svg xmlns="http://www.w3.org/2000/svg" viewBox="0 0 477.29 149.36"><defs><style>.b{fill:#fff}</style></defs><path d="M202.31 32.95h-7.05v44.14h28.71v-6.75h-21.66V32.95zM367.9 34.55a17.42 17.42 0 0 0-16.4 0 13.93 13.93 0 0 0-5.5 5.78 18.3 18.3 0 0 0-2 8.58v4.38a18.3 18.3 0 0 0 2 8.58 13.93 13.93 0 0 0 5.52 5.78 17.5 17.5 0 0 0 16.4 0 13.93 13.93 0 0 0 5.52-5.78 18.3 18.3 0 0 0 1.94-8.58v-4.38a18.3 18.3 0 0 0-1.94-8.58 13.93 13.93 0 0 0-5.54-5.78zm-3.75 27.05a9.33 9.33 0 0 1-8.9 0 7.65 7.65 0 0 1-2.95-3.21 10.8 10.8 0 0 1-1.06-4.89v-4.8a10.83 10.83 0 0 1 1.06-4.89 7.65 7.65 0 0 1 2.95-3.21 9.33 9.33 0 0 1 8.9 0 7.65 7.65 0 0 1 3 3.21 10.83 10.83 0 0 1 1.06 4.89v4.8a10.8 10.8 0 0 1-1.06 4.89 7.65 7.65 0 0 1-3 3.21zM475.43 57.5a10.77 10.77 0 0 0-4.6-3.71 36.84 36.84 0 0 0-6.65-1.93l-.34-.06h-.28l-.28-.06a.81.81 0 0 1-.19 0 47.88 47.88 0 0 1-5.18-1.24 7.06 7.06 0 0 1-2.91-1.85 4.24 4.24 0 0 1-1.12-3.18 5.3 5.3 0 0 1 2.24-4.6 11.16 11.16 0 0 1 6.58-1.67 13.63 13.63 0 0 1 4.73.88 19.45 19.45 0 0 1 4.79 2.65l.41.29 4-5.62-.41-.29a26.47 26.47 0 0 0-4.37-2.56 23.38 23.38 0 0 0-4.52-1.55 23.07 23.07 0 0 0-13.14 1 11.79 11.79 0 0 0-5.46 4.51 13 13 0 0 0-1.88 7.14c0 3.14.69 5.62 2 7.35a10.47 10.47 0 0 0 4.87 3.58 46.43 46.43 0 0 0 7.12 1.69l.38.08a1.41 1.41 0 0 0 .35 0h.11a31.69 31.69 0 0 1 4.71 1.16 6.49 6.49 0 0 1 2.82 1.81 4.82 4.82 0 0 1 1.05 3.28 5.07 5.07 0 0 1-2.37 4.49 12.5 12.5 0 0 1-7 1.65 18.5 18.5 0 0 1-6.27-1 16.45 16.45 0 0 1-5.27-3.11l-.39-.34-4.4 5.41.37.32a22.83 22.83 0 0 0 4.63 3 23.35 23.35 0 0 0 5.32 1.82l2.79.59h3.22A23 23 0 0 0 469.7 76a12.24 12.24 0 0 0 5.64-4.45 12.56 12.56 0 0 0 2-7.09 11.8 11.8 0 0 0-1.91-6.96zM420.41 63.95l-19.6-31h-6.6v44.11h1.66V45.33h4.89l20.33 31.73h6.32V32.95h-7v31zM240.15 77.1l29.04-.01v-6.75h-27.38V58.55h23.73v-6.76h-23.73V39.71h27.38v-6.76h-29.04V77.1zM318 33.78l-.05 12.73-8.96 20.12-2.51-4.95-12.8-28.73h-6.5v44.14h6.91v-27.3l9.5 21.31h4.43l.67.3 9.26-20.79v26.48h6.91V32.95h-6.49l-.37.83zM348.17 75.73h23.06v1.67h-23.06z" style="fill:#231f20"/><path d="M9.9 31.23C.72 36.59 0 48.15 0 48.15V61.9s.72 11.56 9.9 16.92c0 0 9.7 31.23 66.38 31.23s72.9-41.82 72.9-41.82S164 63.28 164 55s-14.86-13.2-14.86-13.2S133 0 76.28 0 9.9 31.23 9.9 31.23z"/><circle class="b" cx="75.84" cy="55.02" r="45.29" transform="rotate(-11.94 75.88 55.062)"/><path d="M102.17 55.02L57.6 30.97v48.11l44.57-24.06z"/><path class="b" d="M26.16 31.84c0-.48-.57-.86-1.05-.86a1 1 0 0 0-1 .86 1.14 1.14 0 0 0 1 1.05 1.22 1.22 0 0 0 1.05-1.05zM36.18 16.19c0-.48-.41-.6-.89-.6s-.59.12-.59.6.12.71.59.71.89-.24.89-.71zM46.2 8a1 1 0 0 0-1-.88c-.47 0-1 .41-1 .88s.58.67 1 .67 1-.19 1-.67zM31.68 22c0-.47-.65-.6-1.13-.6s-.62.13-.62.6.14.74.62.74 1.13-.31 1.13-.74zM25.82 87c0-.83-.75-1.23-1.57-1.23s-1.1.4-1.1 1.23.28 1.11 1.1 1.11 1.57-.25 1.57-1.11zM19 40.81c0-.82-1-1.1-1.8-1.1s-1.5.28-1.5 1.1.67 1 1.5 1 1.8-.18 1.8-1zM141.22 66.76a2 2 0 0 0-1.84-1.62c-.82 0-1.28.8-1.28 1.62s.46 1.67 1.28 1.67a2 2 0 0 0 1.84-1.67zM139 39.32c0-.82-.24-1.83-1.06-1.83a1.92 1.92 0 0 0-1.6 1.83 1.58 1.58 0 0 0 1.6 1.48c.77 0 1.06-.66 1.06-1.48zM124.37 91.56a2.16 2.16 0 0 0-1.75-1.93c-.82 0-1.27 1.11-1.27 1.93s.45 1.17 1.27 1.17 1.75-.34 1.75-1.17zM155.12 49.21c0-.82-.38-1.92-1.2-1.92s-1.33 1.1-1.33 1.92.51 1.88 1.33 1.88 1.2-1.09 1.2-1.88zM129.28 82.82c0-.82-1.13-1.47-2-1.47s-1.14.65-1.14 1.47.32 1.12 1.14 1.12 2-.3 2-1.12zM20.53 62.45c0-.82-1-1-1.83-1s-1.65.2-1.65 1a1.49 1.49 0 0 0 1.65 1.32c.82 0 1.83-.49 1.83-1.32zM41.91 97.57a1.83 1.83 0 0 0-1.8-1.57 1.73 1.73 0 0 0-1.72 1.53c0 .82.89 1.27 1.72 1.27s1.8-.41 1.8-1.23zM31.93 80.56a1.42 1.42 0 0 0-1.38-1.51A1.55 1.55 0 0 0 29 80.56a1.8 1.8 0 0 0 1.53 1.78c.84 0 1.4-.95 1.4-1.78zM130 30.11a.91.91 0 0 0-1-.82c-.47 0-1 .34-1 .82s.54.75 1 .75 1-.28 1-.75zM147.64 55.89c0-.48-.12-.93-.59-.93s-1.11.45-1.11.93.63.94 1.11.94.59-.46.59-.94zM130 43.16a1.21 1.21 0 0 0-1-1.1c-.47 0-.64.63-.64 1.1s.17.74.64.74 1-.26 1-.74zM132.55 54.16a.85.85 0 1 0-1.7 0 .86.86 0 0 0 1.7 0z"/><path d="M88.1 27.32a.86.86 0 1 0-1.71 0 .86.86 0 0 0 1.71 0zM47.05 62.69a.85.85 0 1 0-1.7 0 .86.86 0 0 0 1.7 0z"/><path class="b" d="M107.49 8.87c0-.48-.3-.62-.78-.62s-.85.14-.85.62a.75.75 0 0 0 .85.74.7.7 0 0 0 .78-.74zM11.88 58.41a1.15 1.15 0 0 0-1-1c-.48 0-.75.52-.75 1a.77.77 0 0 0 .75.86 1 1 0 0 0 1-.86zM139.4 57.55a.81.81 0 0 0-.88-.78.9.9 0 0 0-1 .78 1.05 1.05 0 0 0 1 1 1 1 0 0 0 .88-1zM132.65 72c0-.47-.47-.67-1-.67s-.79.2-.79.67.31 1 .79 1a1.06 1.06 0 0 0 1-1zM12.93 48.59c0-.48-.63-.75-1.1-.75s-.64.27-.64.75.16.78.64.78 1.1-.3 1.1-.78zM18.29 75.57a1.12 1.12 0 0 0-1.08-.92c-.48 0-.72.44-.72.92a.63.63 0 0 0 .72.71c.48 0 1.08-.28 1.08-.71zM116 14.46c0-.48-.17-.83-.65-.83a.73.73 0 0 0-.74.83c0 .47.26 1 .74 1s.65-.53.65-1zM108.55 95.22c0-.48-.5-.69-1-.69s-1.13.21-1.13.69.65.7 1.13.7 1-.23 1-.7z"/><path d="M103.22 72.8c0-.48-.5-.68-1-.68s-1.13.2-1.13.68.66.71 1.13.71 1-.24 1-.71z"/><path class="b" d="M125.76 72.91A.8.8 0 0 0 125 72a.91.91 0 0 0-.92.87c0 .48.44.67.92.67s.76-.15.76-.63zM121.36 23.68c0-.47-.61-.92-1.09-.92a1 1 0 0 0-1 .92 1 1 0 0 0 1 .9c.48 0 1.09-.42 1.09-.9zM63.6 6.27c0-.47-.49-.76-1-.76a.8.8 0 0 0-.88.76c0 .48.4 1.1.88 1.1a1.18 1.18 0 0 0 1-1.1zM23.77 74.7a1.27 1.27 0 0 0-1-1.14c-.48 0-.7.66-.7 1.14s.22 1.07.7 1.07a1.19 1.19 0 0 0 1-1.07zM32.79 91.56a.84.84 0 0 0-.75-.93 1.1 1.1 0 0 0-1.05.93 1.21 1.21 0 0 0 1.05 1c.48.05.75-.56.75-1z"/><path d="M201.35 108.86l-5.53 15h2.27l1.13-3.29h6.05l1.13 3.29h2.27l-5.53-15zm-1.44 9.7l2.33-6.8 2.34 6.8zM223.54 120.06l-7.08-11.2h-1.91v14.98h2.08v-11.03l7.07 11.03h1.93v-14.98h-2.09v11.2zM232.95 108.86h2.1v15h-2.1zM248.75 118.76l-4.4-9.9h-1.97v14.99h2.05v-10.13l3.59 8.05h1.46l3.59-8.25v10.33h2.05v-14.99h-1.97l-4.4 9.9zM264.4 120.56h6.06l1.13 3.29h2.27l-5.53-15h-1.8l-5.53 15h2.27zm3-8.8l2.34 6.8h-4.68zM277.67 110.86h4.24v12.99h2.1v-12.99h4.24v-2h-10.58v2zM293.51 108.86h2.1v15h-2.1zM310.66 109.39a5.87 5.87 0 0 0-5.52 0 4.62 4.62 0 0 0-1.85 1.94 6.11 6.11 0 0 0-.66 2.9v4.25a6.11 6.11 0 0 0 .66 2.9 4.56 4.56 0 0 0 1.85 1.94 5.87 5.87 0 0 0 5.52 0 4.64 4.64 0 0 0 1.86-1.94 6.23 6.23 0 0 0 .65-2.9v-4.25a6.23 6.23 0 0 0-.65-2.9 4.7 4.7 0 0 0-1.86-1.94zm.36 9.16a3.86 3.86 0 0 1-.39 1.78 2.86 2.86 0 0 1-1.09 1.19 3.18 3.18 0 0 1-1.64.42 3.12 3.12 0 0 1-1.63-.42 2.81 2.81 0 0 1-1.1-1.19 4 4 0 0 1-.38-1.78v-4.39a4 4 0 0 1 .38-1.78 2.81 2.81 0 0 1 1.1-1.19 3.11 3.11 0 0 1 1.63-.41 3.17 3.17 0 0 1 1.64.41 2.86 2.86 0 0 1 1.09 1.19 3.89 3.89 0 0 1 .39 1.78zM329.18 108.86v11.2l-7.09-11.2h-1.9v14.98h2.08v-11.03l7.06 11.03h1.93v-14.98h-2.08zM204.62 141.43a12.34 12.34 0 0 0-2.27-.65h-.42a14 14 0 0 1-1.82-.44 2.75 2.75 0 0 1-1.1-.65 1.67 1.67 0 0 1-.44-1.22 2 2 0 0 1 .86-1.74 4 4 0 0 1 2.38-.61 4.92 4.92 0 0 1 1.71.32 6.92 6.92 0 0 1 1.71.94l1.19-1.67a8.38 8.38 0 0 0-1.49-.87 7.27 7.27 0 0 0-1.53-.52 7.77 7.77 0 0 0-4.46.34 3.84 3.84 0 0 0-1.82 1.5 4.3 4.3 0 0 0-.63 2.37 3.88 3.88 0 0 0 .67 2.45 3.47 3.47 0 0 0 1.62 1.19 15.36 15.36 0 0 0 2.45.58h.28a12 12 0 0 1 1.67.41 2.49 2.49 0 0 1 1.05.68 1.83 1.83 0 0 1 .41 1.25 1.93 1.93 0 0 1-.9 1.7 4.51 4.51 0 0 1-2.52.61 6.46 6.46 0 0 1-2.22-.4 5.67 5.67 0 0 1-1.89-1.11l-1.31 1.61a7.59 7.59 0 0 0 1.57 1 7.73 7.73 0 0 0 1.81.62l1 .21h1.09a7.75 7.75 0 0 0 3-.51 4 4 0 0 0 1.88-1.49 4.08 4.08 0 0 0 .65-2.35 3.87 3.87 0 0 0-.61-2.32 3.59 3.59 0 0 0-1.57-1.23zM211.3 136.21h4.24v12.99h2.1v-12.99h4.24v-2H211.3v2zM235.37 143.85a3.58 3.58 0 0 1-.83 2.54 3.51 3.51 0 0 1-4.67 0 3.63 3.63 0 0 1-.83-2.54v-9.64h-2.1v9.57a6.63 6.63 0 0 0 .62 3 4.27 4.27 0 0 0 1.8 1.91 5.71 5.71 0 0 0 2.84.66 5.77 5.77 0 0 0 2.85-.66 4.29 4.29 0 0 0 1.81-1.91 6.76 6.76 0 0 0 .62-3v-9.57h-2.11zM252.43 134.83a7 7 0 0 0-3.08-.62h-4.76v15h4.75a7 7 0 0 0 3.09-.63 4.38 4.38 0 0 0 1.95-1.83 5.9 5.9 0 0 0 .67-2.91v-4.25a5.85 5.85 0 0 0-.67-2.91 4.35 4.35 0 0 0-1.95-1.85zm.47 9.08a3.17 3.17 0 0 1-.92 2.43 3.59 3.59 0 0 1-2.57.86h-2.71v-11h2.71a3.55 3.55 0 0 1 2.57.86 3.17 3.17 0 0 1 .92 2.43zM262.07 134.21h2.1v15h-2.1zM279.22 134.74a5.89 5.89 0 0 0-5.53 0 4.62 4.62 0 0 0-1.85 1.94 6.11 6.11 0 0 0-.66 2.9v4.25a6.11 6.11 0 0 0 .66 2.9 4.68 4.68 0 0 0 1.85 1.94 5.89 5.89 0 0 0 5.53 0 4.68 4.68 0 0 0 1.85-1.94 6.11 6.11 0 0 0 .65-2.9v-4.25a6.11 6.11 0 0 0-.65-2.9 4.62 4.62 0 0 0-1.85-1.94zm.35 9.16a3.89 3.89 0 0 1-.39 1.78 2.86 2.86 0 0 1-1.09 1.19 3.47 3.47 0 0 1-3.27 0 2.79 2.79 0 0 1-1.09-1.19 3.89 3.89 0 0 1-.39-1.78v-4.39a3.86 3.86 0 0 1 .39-1.78 2.74 2.74 0 0 1 1.09-1.19 3.39 3.39 0 0 1 3.27 0 2.8 2.8 0 0 1 1.09 1.19 3.86 3.86 0 0 1 .39 1.78z"/></svg>