<svg xmlns="http://www.w3.org/2000/svg"><symbol id="dots" viewBox="0 0 16 4"><path fill-rule="evenodd" clip-rule="evenodd" d="M2 4a2 2 0 1 0 0-4 2 2 0 0 0 0 4zm6 0a2 2 0 1 0 0-4 2 2 0 0 0 0 4zm8-2a2 2 0 1 1-4 0 2 2 0 0 1 4 0z" fill="#fff"/></symbol><symbol id="star" viewBox="0 0 18 16"><path fill-rule="evenodd" clip-rule="evenodd" d="M5.918 9.771L3.972 16l4.999-3.977 5.24 3.726-.018-.053-.105-.315.325.223-2.12-5.9 4.738-3.147-5.903-.071L8.971 0 6.96 6.436.955 6.364 5.918 9.77z" fill="#858E98"/></symbol></svg>