<!DOCTYPE svg PUBLIC "-//W3C//DTD SVG 1.1//EN" "http://www.w3.org/Graphics/SVG/1.1/DTD/svg11.dtd"><svg xmlns="http://www.w3.org/2000/svg"><symbol id="behance"><path transform="translate(-1388 -469)" d="M1398.923 477c2.371 0 4.019.764 4.019 3.14 0 1.176-.485 2.053-1.71 2.643 1.568.454 2.31 1.646 2.31 3.212 0 2.485-2.023 3.672-4.443 3.672H1393V477zm1.34 3.624c0-1.115-.805-1.46-1.904-1.46h-2.591v2.973h2.802c1.001 0 1.692-.455 1.692-1.513zm-1.54 6.868c1.2 0 2.041-.45 2.041-1.663 0-1.258-.742-1.804-1.989-1.804h-3.007v3.467zm11.897-.895h2.204c-.63 1.966-1.931 3.07-4.267 3.07-2.98 0-4.653-2.066-4.653-4.808 0-6.455 9.558-6.687 9.079.603h-6.576c.064 1.48.691 2.324 2.239 2.324 1.048 0 1.817-.645 1.974-1.189zm-4.213-2.722h4.072c-.276-1.51-.961-1.961-1.992-1.961-1.135 0-1.997.689-2.08 1.961zm-.428-6.232h5.088v1.42h-5.088z"/></symbol><symbol id="dribble"><path transform="translate(-1388 -514)" d="M1393 529.01c0-3.747 2.008-6.918 4.98-8.647 6.623-3.854 15.02.917 15.02 8.647 0 3.748-2.008 6.918-4.98 8.648a10.057 10.057 0 0 1-10.04 0c-2.975-1.73-4.98-4.903-4.98-8.648m3.76 5.492c1.252-2.448 4.365-5.104 7.1-5.712-.2-.466-.393-.885-.58-1.258-2.772.886-5.932 1.218-8.6 1.079 0 2.13.349 3.932 2.08 5.891m-1.84-7.549c1.17.106 4.368.122 7.64-.859-1.013-1.797-2.127-3.295-3.34-4.493-2.147 1.085-3.696 3.097-4.3 5.352m2.98 8.628c2.4 1.866 5.376 2.218 8.04 1.198a29.322 29.322 0 0 0-1.56-6.61c-2.6.564-5.345 3.17-6.48 5.412m3.06-14.62c1.173 1.212 2.26 2.724 3.26 4.534 1.813-.759 3.18-1.724 4.1-2.896-2.231-1.843-4.98-2.29-7.36-1.637m3.98 5.951c.2.427.427.966.68 1.618 1.821-.172 3.853-.17 5.68-.08-.107-1.81-.76-3.422-1.96-4.833-.867 1.291-2.333 2.39-4.4 3.295m1.18 3.016c.68 1.97 1.14 3.994 1.38 6.071 2.091-1.348 3.51-3.565 3.78-6.071-2.027-.139-3.388-.127-5.16 0"/></symbol><symbol id="vimeo"><path transform="translate(-1388 -562)" d="M1412.99 572.01c-.09 1.95-1.449 4.621-4.079 8.012-2.719 3.54-5.02 5.311-6.902 5.311-1.166 0-2.152-1.08-2.958-3.24l-1.614-5.942c-.598-2.16-1.24-3.241-1.927-3.241-.15 0-.673.315-1.569.946l-.941-1.216c.986-.87 1.957-1.741 2.913-2.61 1.315-1.142 2.301-1.741 2.958-1.801 1.554-.15 2.51.915 2.869 3.195.388 2.462.657 3.991.807 4.592.448 2.04.941 3.06 1.48 3.06.417 0 1.045-.66 1.881-1.98.837-1.32 1.285-2.326 1.345-3.015.12-1.141-.329-1.71-1.345-1.71a3.86 3.86 0 0 0-1.479.314c.986-3.211 2.87-4.772 5.648-4.681 2.061.06 3.033 1.395 2.913 4.006z"/></symbol><symbol id="arrow"><path transform="translate(-1122 -2345)" d="M1146 2351.512l-6.788-6.512-1.697 1.504 3.891 3.721H1122v2.422h19.406l-3.891 4.136 1.697 1.817z"/></symbol><symbol id="badge_mo"><g fill-rule="evenodd" fill="#c1a062"><path d="M0 0h23v38l-11.148-6.798L0 38z"/><path d="M12.573 25h-1.576v-5.707h-.047L8.653 25H7.54l-2.297-5.707h-.047V25H3.62v-8.455h2.05l2.403 6.07h.047l2.402-6.07h2.051V25zm4.11.135c-1.899 0-3.112-1.219-3.112-3.281 0-2.034 1.23-3.27 3.112-3.27 1.88 0 3.11 1.23 3.11 3.27 0 2.068-1.212 3.28-3.11 3.28zm0-1.307c.838 0 1.37-.709 1.37-1.969 0-1.248-.538-1.968-1.37-1.968-.832 0-1.377.72-1.377 1.968 0 1.26.533 1.97 1.377 1.97z" fill="#FFF"/></g></symbol><symbol id="badge_ae"><path fill="#422D53" d="M0 0h23v38l-11.148-6.798L0 38z"/><path d="M10.42 25l-.645-2.05h-2.97L6.16 25H4.344l2.935-8.455h2.08L12.301 25H10.42zm-2.15-6.838l-1.085 3.463h2.21L8.31 18.162h-.04zm7.296 1.688c-.75 0-1.289.568-1.347 1.353h2.666c-.035-.803-.557-1.353-1.319-1.353zm1.342 3.228h1.57c-.187 1.23-1.312 2.057-2.865 2.057-1.933 0-3.093-1.237-3.093-3.246 0-2.004 1.171-3.305 3.029-3.305 1.828 0 2.982 1.236 2.982 3.146v.522h-4.33v.105c0 .897.569 1.512 1.442 1.512.627 0 1.107-.31 1.265-.79z" fill="#D8A1FF"/></symbol><symbol id="ico"><path d="M11.7 51.975H0v-51h11.7v51zM61.762 3.75l-3.525 8.1c-2.7-.85-4.712-1.425-6.037-1.725-1.325-.3-2.912-.45-4.763-.45-2.35 0-4.537.7-6.562 2.1-2.025 1.4-3.637 3.387-4.838 5.963-1.2 2.575-1.8 5.537-1.8 8.887 0 3.2.575 6.062 1.725 8.587 1.15 2.526 2.725 4.5 4.725 5.925 2 1.426 4.25 2.138 6.75 2.138 3.55 0 7.025-.85 10.425-2.55l4.425 8.7c-1.9 1.1-4.237 1.962-7.012 2.588-2.775.625-5.362.937-7.763.937-5.3 0-9.862-1.125-13.687-3.375-3.825-2.25-6.737-5.362-8.738-9.338-2-3.975-3-8.487-3-13.537 0-5.15 1.075-9.75 3.225-13.8 2.15-4.05 5.15-7.212 9-9.488C38.162 1.137 42.562 0 47.512 0c2.2 0 4.625.325 7.275.975 2.65.65 4.975 1.575 6.975 2.775z"/><path fill="none" d="M91.5 5C79.626 5 70 14.626 70 26.5S79.626 48 91.5 48h182c11.874 0 21.5-9.626 21.5-21.5S285.374 5 273.5 5h-182z" stroke="#454545" stroke-width="10"/></symbol><symbol id="blot_1"><path transform="translate(-245 -6270)" d="M283.396 6270c57.106 0 56.735 83.25 5.153 83.25S226.29 6270 283.396 6270z"/></symbol><symbol id="blot_2"><path transform="translate(-595 -6270)" d="M637.75 6270c57 0 57 81.75 0 81.75s-57-81.75 0-81.75z"/></symbol><symbol id="blot_3"><path transform="translate(-945 -6270)" d="M987.355 6270.455c57.584 7.918 67.296 76.227 5.144 83.19-62.152 6.965-62.728-91.107-5.144-83.19z"/></symbol><symbol id="linkedin"><path d="M347.445 0H34.555C15.471 0 0 15.471 0 34.555v312.889C0 366.529 15.471 382 34.555 382h312.889C366.529 382 382 366.529 382 347.444V34.555C382 15.471 366.529 0 347.445 0zM118.207 329.844c0 5.554-4.502 10.056-10.056 10.056H65.345c-5.554 0-10.056-4.502-10.056-10.056V150.403c0-5.554 4.502-10.056 10.056-10.056h42.806c5.554 0 10.056 4.502 10.056 10.056v179.441zM86.748 123.432c-22.459 0-40.666-18.207-40.666-40.666S64.289 42.1 86.748 42.1s40.666 18.207 40.666 40.666-18.206 40.666-40.666 40.666zM341.91 330.654a9.247 9.247 0 0 1-9.246 9.246H286.73a9.247 9.247 0 0 1-9.246-9.246v-84.168c0-12.556 3.683-55.021-32.813-55.021-28.309 0-34.051 29.066-35.204 42.11v97.079a9.246 9.246 0 0 1-9.246 9.246h-44.426a9.247 9.247 0 0 1-9.246-9.246V149.593a9.247 9.247 0 0 1 9.246-9.246h44.426a9.247 9.247 0 0 1 9.246 9.246v15.655c10.497-15.753 26.097-27.912 59.312-27.912 73.552 0 73.131 68.716 73.131 106.472v86.846z"/></symbol></svg>