<svg width="300" height="53" viewBox="0 0 300 53" xmlns="http://www.w3.org/2000/svg"><g fill="none" fill-rule="evenodd"><path d="M11.7 51.975H0v-51h11.7v51zM61.762 3.75l-3.525 8.1c-2.7-.85-4.712-1.425-6.037-1.725-1.325-.3-2.912-.45-4.763-.45-2.35 0-4.537.7-6.562 2.1-2.025 1.4-3.637 3.387-4.838 5.963-1.2 2.575-1.8 5.537-1.8 8.887 0 3.2.575 6.062 1.725 8.587 1.15 2.526 2.725 4.5 4.725 5.925 2 1.426 4.25 2.138 6.75 2.138 3.55 0 7.025-.85 10.425-2.55l4.425 8.7c-1.9 1.1-4.237 1.962-7.012 2.588-2.775.625-5.362.937-7.763.937-5.3 0-9.862-1.125-13.687-3.375-3.825-2.25-6.737-5.362-8.738-9.338-2-3.975-3-8.487-3-13.537 0-5.15 1.075-9.75 3.225-13.8 2.15-4.05 5.15-7.212 9-9.488C38.162 1.137 42.562 0 47.512 0c2.2 0 4.625.325 7.275.975 2.65.65 4.975 1.575 6.975 2.775z" fill="#454545"/><path d="M91.5 5C79.626 5 70 14.626 70 26.5S79.626 48 91.5 48h182c11.874 0 21.5-9.626 21.5-21.5S285.374 5 273.5 5h-182z" stroke="#454545" stroke-width="10"/></g></svg>