<svg version="1.0" xmlns="http://www.w3.org/2000/svg" width="613.333" height="613.333" viewBox="0 0 460 460"><path d="M360.7 10.3c.7 1.2-14 14.7-15.4 14.2-.7-.2-1 .2-.6 1.1.4 1-.2 1.7-1.6 2.1-1.3.3-2.1 1.3-2.1 2.6 0 1.1-.3 1.8-.6 1.4-.6-.5-4.7 2.9-12.2 10.1l-2.5 2.4-5.9-2.2-6-2.2-3.2 3c-9.3 8.9-15.2 14.2-15.8 14.2-1.4 0-.9 2.3 1 4.3 1.6 1.9 1.6 2-.5.8-3.4-1.7-4.5-1.4-9.3 3-2.5 2.2-5.5 4.9-6.6 6-1.3 1.2-2.9 1.7-4 1.3-1.5-.4-1.6-.4-.5.4s.7 1.6-2.3 4.2l-3.7 3.3 2.2 2.3c1.3 1.3 1.7 2.4 1.1 2.4-.6 0-1.4-.5-1.7-1-1.1-1.8-4.4-1-7.3 1.7-2.4 2.4-9.1 8.4-16.9 15.1-2.9 2.5-2.9 3.3.2 6.2 1.4 1.3 2.3 3 2.1 3.7-.3.6 0 1 .7.8.7-.2 3.9 2.9 7.2 6.9 3.3 4.1 6.9 7.6 8 8 1 .3 1.6.8 1.2 1.2-.4.4 1.2 2.8 3.6 5.3 4.7 5.1 13.9 15.8 14.7 17.2 1.2 1.8 36.8 17.9 38.4 17.3 1-.4 1.8 0 2.2 1.1.9 2.3 36.6 19.5 40.4 19.5 1.8 0 11-9.1 11-10.9 0-.6.7-1.1 1.5-1.1s1.5-.3 1.5-.8c0-.4 2.1-3.1 4.6-6 2.6-2.9 4.4-5.5 4.2-5.8-.3-.2-5 4.7-10.4 11-5.5 6.4-10.7 11.5-11.7 11.5-1.1.1-1.5-.3-1.1-1.1.4-.7.3-.8-.5-.4-1.6 1-5.3-.3-4.5-1.6.4-.7.2-.8-.4-.4-.6.4-2.1.2-3.3-.5l-2.2-1.2 2.4-1.3c1.3-.7 2-1.3 1.6-1.4-.5 0-1.7.5-2.8 1.1-2.3 1.2-6.2.2-5.3-1.3.4-.7.2-.8-.5-.4-1.5 1-12.2-4.5-11.4-5.8.4-.5 0-.7-.8-.4-.8.3-2.5.1-3.8-.3l-2.4-.9.8-12.8c.4-7 .7-13.5.7-14.5 0-.9.5-1.7 1.1-1.7.7 0 .6-.4-.3-1-1-.6-1.1-1.2-.5-1.9.6-.6 6.8 1.7 17.4 6.6 10.9 5 16.7 7.1 17.3 6.5.6-.6 1.6-.9 2.2-.8.6.1-.4-.4-2.1-1.2-2-.9-3.3-2.2-3.3-3.3 0-1.1-.5-1.9-1.1-1.9-.5 0-.7.4-.4 1 1.2 2-2.5.9-11.7-3.4-5.1-2.4-10.5-4.7-12-5.1-1.6-.4-2.8-1.1-2.8-1.6s-.7-.9-1.6-.9c-1.5 0-1.6-1.1-1-9.2.3-5 .6-11.7.6-14.9 0-5.3.2-5.8 2.8-6.8 1.9-.8 2-1 .5-.7-5 .9-2.9-3 7.1-13.2 5.6-5.7 9.3-10 8.4-9.6-2.1.7-2.5-2.5-.6-4.4.9-.9.9-1.2 0-1.2-.7 0-1.2-.6-1.2-1.4 0-.8-2.3-2.3-5.2-3.5-2.9-1.1-4.6-2-3.8-2.1 1.2 0 1.1-.4-.4-1.5-1.1-.8-2.8-1.2-3.8-.9-1.1.3-5.8-1.1-11-3.2-6.9-2.9-8.6-4-7.2-4.5 1.6-.7 1.7-.8.2-.8-4.6-.2-2.2-3.2 16.6-20.4 3-2.8 5.3-2.8 10.7-.1 1.4.7 8.5 3.6 15.7 6.4l13.2 5.1v3.6c0 3.2-1.1 4.7-10.5 14.3-6.2 6.3-10.5 11.4-10.5 12.6.1 1.8.1 1.8 1.1.1 1.1-1.9 2.6-1.7 8.4.8 9.8 4.2 27.6 11.5 28.3 11.5.5 0 1.6.6 2.5 1.3 1.7 1.2 1.7 2-.3 15.7-2.4 17.4-2.4 16-.2 15.9.9 0 1.2-.3.5-.5-.7-.3-.9-1.2-.6-2 .7-2 4-28.7 3.6-29.6-.2-.3-3.4-1.6-7.1-2.9-7.6-2.5-27.2-11-21.9-9.4 5.7 1.6 6.9 1.5 3-.4-2.3-1-5.2-1.7-6.5-1.4-1.9.4-2 .3-.8-.7 1.2-.9 1.1-1-.6-.5-1.6.4-2.3 0-2.7-1.4-.4-1.5 1.7-4.1 8.4-10.5 4.8-4.7 8.4-8.6 7.9-8.6s-.8-1.2-.8-2.8c.1-5.9-.2-8.7-1-7.5-.6.9-1.4.9-3.7-.1-1.7-.8-5.1-2.1-7.8-3.1-2.8-1-4.4-2.1-4.1-2.7.5-.7.2-.8-.5-.3-.7.4-2.3.3-3.4-.3-1.2-.6-3-1.3-4-1.6-1.1-.3-1.5-1.1-1.1-1.7.4-.8.3-.9-.5-.5-1.4.9-5.3-.2-4.6-1.4.3-.4-.2-1.1-1.1-1.4-1-.4-1.3-.2-.8.6.4.7.3.8-.4.4s-1.2-1.3-1.2-1.9c0-1.3 17.1-17.4 21.7-20.4 1.6-1 1.4-1.1-1.4-1-1.7.1-2.9.6-2.6 1zm-39.2 50.3c3.3 1.4 11.1 4.5 17.3 7.1l11.2 4.5v4.2c0 3.9-.5 4.7-10.9 15l-10.9 10.9-.7 12.8c-.5 8.4-1.2 13.2-2 13.9-1.1.9-1 1.6.1 4 1.2 2.3 1.3 4.4.4 11.2-.5 4.5-1 10.8-1 13.9 0 3.8-.5 6.1-1.5 6.9-1.3 1.1-1.5.8-1.5-1.4 0-1.4-.4-2.6-.9-2.6s-.7.9-.4 2.1c.6 2 .5 2-3.3.4-2.2-.9-4.5-1.9-5.1-2.2-.7-.3-1-1-.6-1.6.3-.6.1-.7-.6-.3-.6.4-2.2.1-3.4-.6-1.2-.8-4.3-2.2-7-3.2-2.8-1-4.4-2.2-4.1-2.8.4-.7.2-.8-.4-.4-.6.3-2.6-.1-4.4-1.1l-3.3-1.8.2-13.5c.2-7.4.5-14 .7-14.7.3-.6 0-1.4-.7-1.6-.8-.3-.6-.7.4-1.1 1-.5 7.3 1.8 16.3 5.8 8.1 3.6 15 6.6 15.5 6.6s1.4-.6 2-1.4c.9-1.1.9-1.6 0-2.2-.8-.5-.9-.3-.4.6.4.7.4 1.1-.1.9-.5-.3-2.9-1.4-5.4-2.6-2.5-1.2-8.5-4.1-13.5-6.4-4.9-2.4-9.6-4.3-10.2-4.2-.7 0-1.3-.5-1.3-1.3s-.6-1.1-1.5-.8c-1.3.5-1.5-1.7-1.5-16.8V79.3l8.2-7.4c4.6-4.1 9.8-8.9 11.8-10.6 1.9-1.8 4.2-3.2 5-3.2.8-.1 4.2 1.1 7.5 2.5zM340 66c0 .5-.4 1-1 1-.5 0-1-.5-1-1 0-.6.5-1 1-1 .6 0 1 .4 1 1z"/><path d="M290 83c0 .5.7 1 1.6 1 .8 0 1.2-.5.9-1-.3-.6-1-1-1.6-1-.5 0-.9.4-.9 1zM323.2 101.5c0 1.1.4 3.1.8 4.5.6 2 .8 2.1.8.5 0-1.1-.4-3.1-.8-4.5-.6-2-.8-2.1-.8-.5zM322.1 110.6c0 1.1.3 1.4.6.6.3-.7.2-1.6-.1-1.9-.3-.4-.6.2-.5 1.3zM298.5 114c-.3.6.1.7.9.4 1.8-.7 2.1-1.4.7-1.4-.6 0-1.3.4-1.6 1zM321.2 122c0 1.4.2 1.9.5 1.2.2-.6.2-1.8 0-2.5-.3-.6-.5-.1-.5 1.3zM294 123.4c0 .2.9.6 2 .9 1.1.3 1.8.1 1.4-.4-.5-.9-3.4-1.3-3.4-.5zM308.8 130.7c.7.3 1.6.2 1.9-.1.4-.3-.2-.6-1.3-.5-1.1 0-1.4.3-.6.6zM313.7 132.1c.7.7 1.5 1 1.8.7.3-.3-.2-.9-1.2-1.2-1.4-.6-1.5-.5-.6.5zM320.6 136.7c.3 1.5.8 3 1.1 3.3.3.3.3-.5 0-1.8-.4-1.8-.2-2.2.9-1.8 2.1.8 1.7-.2-.5-1.4-1.8-.9-1.9-.7-1.5 1.7zM321.6 142.5c-.3.9-.6 2.2-.5 2.8 0 .7.5.1 1-1.2s.8-2.6.5-2.8c-.2-.2-.6.3-1 1.2zM301 154.4c2.9 1.7 4 2 4 .8 0-.5-.6-.9-1.2-.9-.7 0-2.2-.4-3.3-.7-1.3-.5-1.2-.2.5.8zM321.1 158.6c0 1.1.3 1.4.6.6.3-.7.2-1.6-.1-1.9-.3-.4-.6.2-.5 1.3zM367.5 10.7c.6.6 8.1 3.7 16.8 6.9l15.9 5.9-.5 4.4c-.5 4.1-1.3 5.3-10.1 13.8-8.4 8.3-10.9 11.3-9.1 11.3.3 0 1.4-.5 2.4-1.2 1.5-.9 5 .1 20.2 6.2 10.1 4 18.5 7.4 18.7 7.5.3.2-3.1 21.8-4.4 28.7-.5 2.2-.2 2.8 1.3 2.8 1.4 0 1.5-.2.4-.9-.8-.5-1-1.4-.5-2.2.4-.7.9-2.5 1-3.9.3-2.9 2-13.6 3.2-20.1l.9-4.7-6.6-2.9c-3.6-1.7-9-3.8-11.9-4.7-2.8-1-5-2.1-4.7-2.6.3-.5 0-1.2-.6-1.6-.8-.5-.9-.3-.4.5.5.9.2 1.2-1.1.9-1.1-.2-1.8-.9-1.7-1.6.2-.6-.3-.9-1.1-.6-2.1.8-8.6-2.3-8.6-4.1 0-.9 3.3-4.9 7.3-8.8 6.9-6.9 7.2-7.4 7.2-11.9v-4.7l-5.5-2.5c-3-1.4-6.8-2.8-8.5-3.2-1.6-.4-3.4-1-4-1.4-.5-.5-3.7-1.7-7-2.8-3.3-1.1-6.9-2.3-8-2.7-1.3-.6-1.7-.5-1 .2zM396 18.4c0 .2.7.7 1.6 1 .8.3 1.2.2.9-.4-.6-1-2.5-1.4-2.5-.6z"/><path d="M404.6 27.7c-1.6 1.3-2.6 2.7-2.3 3 .3.3 1.6-.6 2.9-2l2.3-2.4 13 4.9c7.2 2.7 15.6 5.9 18.8 7.1l5.8 2.2-.6 4.5c-.6 4.4-.9 6.3-4.1 22.5-.8 4.4-2.2 8.7-3 9.6-1.2 1.3-1.2 1.8-.3 2.1 1 .3.6 4.1-1.5 16.2-1.5 8.7-2.6 16-2.3 16.3.6.5 1.6-4.4 4.3-19.7 2.3-13.6 2.4-14.1 1.2-13.4-.6.4-.8.1-.4-.7.3-.8.9-2.2 1.2-3.2.4-.9.9-1.7 1.3-1.7.3 0 .6-1 .7-2.3.1-2.9 3.3-22.1 4.4-26.2 1.1-4.4-.4-5.8-9.5-8.5-3.4-1.1-13.7-5-21-8-6.7-2.8-8-2.8-10.9-.3zM330.5 61.4c2.8 1.4 5.5 2.5 6 2.5 1.5 0-5.6-3.6-8.5-4.3-1.4-.3-.2.5 2.5 1.8z"/><path d="M419 61.4c0 .2.7.7 1.6 1 .8.3 1.2.2.9-.4-.6-1-2.5-1.4-2.5-.6zM345.4 67.4c1.1.9 2.4 1.6 3 1.6 1.2 0 .7-.5-2.4-1.9-2.4-1.1-2.4-1.1-.6.3zM350 69.4c0 .2.7.7 1.6 1 .8.3 1.2.2.9-.4-.6-1-2.5-1.4-2.5-.6zM377.5 80.8c1.3 1.3 13.5 6.1 13.5 5.3 0-.3-2.8-1.7-6.2-3.1-8.8-3.5-8.4-3.4-7.3-2.2zM392.8 87.2c.5.5 1.6.8 2.3.6.8-.3.3-.7-1-1.1-1.7-.4-2.1-.3-1.3.5zM414.6 101.9c-1.6 1.7-1.6 1.9 0 2.5 1.1.4 1.4 1.3 1 2.9-.3 1.2-1.3 6.9-2.1 12.7-1.8 11.8-3.2 17.7-4.3 18.2-.4.2-1.7 1.5-2.9 3-3.9 5.2-14.6 16.8-15.4 16.8-.9 0-.2-12.1 1.1-17 1.4-5.9 2-12.4 1.2-13.6-.4-.6-1.3-.4-2.4.8-1.4 1.4-1.5 1.9-.3 2.5 1.2.7 1 3-.7 15.6-1.2 8.1-1.8 15-1.5 15.4 1.1 1.1 21-20.5 23-24.9.6-1.6 1.5-2.8 1.9-2.8 1.1 0 4-3 11.2-11.4 3.3-3.9 6.4-7.3 6.8-7.4.5-.2.8-1.1.8-2 0-1.1-.3-1.3-.8-.6-.8 1.3-8.4 10-13.7 15.9-2 2.1-3.8 3.6-4 3.3-.3-.3.3-6.1 1.4-12.9 1.6-10.4 2.3-18.9 1.6-18.9-.1 0-1 .8-1.9 1.9zM393 129c0 .5-.5 1-1.1 1-.5 0-.7-.5-.4-1 .3-.6.8-1 1.1-1 .2 0 .4.4.4 1zM354.8 110.7c.7.3 1.6.2 1.9-.1.4-.3-.2-.6-1.3-.5-1.1 0-1.4.3-.6.6zM358 111.4c0 .2.7.7 1.6 1 .8.3 1.2.2.9-.4-.6-1-2.5-1.4-2.5-.6zM364.5 115c.3.5 1.1 1 1.6 1 .6 0 .7-.5.4-1-.3-.6-1.1-1-1.6-1-.6 0-.7.4-.4 1zM369.2 120.8c.1 4.3.2 4.4.5 1 .3-2.4 1-3.8 2.1-4 1.3-.3 1.2-.5-.5-1-2.2-.6-2.3-.3-2.1 4zM370.5 128c-.4 1.7-.5 3.4-.2 3.6.2.3.7-1 1.1-2.7.8-4.2 0-5-.9-.9zM351.8 137.2c.5.5 1.6.8 2.3.6.8-.3.3-.7-1-1.1-1.7-.4-2.1-.3-1.3.5zM346.8 137.7c.6.2 1.8.2 2.5 0 .6-.3.1-.5-1.3-.5-1.4 0-1.9.2-1.2.5zM350 139.4c0 .2.7.7 1.6 1 .8.3 1.2.2.9-.4-.6-1-2.5-1.4-2.5-.6zM357.7 142.1c.7.7 1.5 1 1.8.7.3-.3-.2-.9-1.2-1.2-1.4-.6-1.5-.5-.6.5zM369.1 142.7c-.1 1.2-.9 2.4-1.8 2.6-1.7.4-1.7.5 0 .6 1.9.1 3.2-2.1 2.4-4.1-.3-.7-.6-.3-.6.9zM360.5 154c-.3.5.1 1 1 1s1.3-.5 1-1c-.3-.6-.8-1-1-1-.2 0-.7.4-1 1zM334.2 163c0 1.4.2 1.9.5 1.2.2-.6.2-1.8 0-2.5-.3-.6-.5-.1-.5 1.3zM366.2 171c0 1.9.2 2.7.5 1.7.2-.9.2-2.5 0-3.5-.3-.9-.5-.1-.5 1.8zM361 174.4c0 .8.4 1.7.9 2 .5.4.7-.3.4-1.4-.6-2.3-1.3-2.6-1.3-.6zM365.1 177.6c0 1.1.3 1.4.6.6.3-.7.2-1.6-.1-1.9-.3-.4-.6.2-.5 1.3zM365.1 181.6c0 1.1.3 1.4.6.6.3-.7.2-1.6-.1-1.9-.3-.4-.6.2-.5 1.3zM338.8 181.7c.7.3 1.6.2 1.9-.1.4-.3-.2-.6-1.3-.5-1.1 0-1.4.3-.6.6zM151 226c-36.8 2.1-75.2 20.6-98.9 47.5-7.3 8.3-10.7 13.3-15.6 22.8-5.8 11.1-6.6 13.4-8.9 25.7L25 335.5l1.9 13.5c1.8 12.9 2.1 14 8.1 26 6 12.1 6.6 12.9 17.3 23.1 10.2 9.7 12.5 11.4 25.2 18 13.6 7.1 14.5 7.4 31.5 10.9l17.5 3.6 18.2-.8c17.8-.7 18.6-.9 35.5-5.7 15.4-4.4 18.9-5.8 32.5-13.3 13.9-7.5 16.4-9.4 27.7-20.1 11-10.3 13.4-13.2 20.1-24.1 6.7-10.9 8-14 11.1-25.3 3.5-12.5 3.6-13.1 3.1-26.6-.5-13.6-.6-14.2-5.2-26.1-4.1-10.9-5.6-13.5-12.8-22.5-16.4-20.4-40.1-33.5-70.1-38.6-14.5-2.6-16-2.6-35.6-1.5zm5.7 13.6c9.2 5.2 17.5 10.3 18.4 11.2.9.9 4 6.1 6.9 11.5l5.2 9.7-14.3 13.9-14.2 13.8 1.1 3.3c1.2 3.2.9 5-.7 5-.5 0-3.6-4.2-7.1-9.4-6-9.2-6.5-9.6-16.3-15.5-20.3-12.1-26-15.7-26.1-16.6-.1-1.4 27.8-36.4 29.1-36.5.6 0 8.7 4.3 18 9.6zm77.7 71.1l4.8 9.8-2.9 2.4c-3.4 2.9-29.6 25.3-30.3 25.8-.8.7 4.2 4 12.7 8.5 4.6 2.4 8.3 4.7 8.3 5.1 0 .4-5.7 6.6-12.6 13.7-10.8 11-13.5 13.3-18.2 15-9.8 3.7-9.6 3.8-22.2-4.5-6.7-4.4-12.1-7.3-13.1-7-.9.3-7.6-1.2-15-3.4s-20.7-6.1-29.5-8.7l-16.2-4.7 2.7-8.1c1.5-4.5 4.7-14.3 7.1-21.9 2.8-8.7 4.9-13.7 5.7-13.7 4.2 0 38.3 9.5 46.8 13 5.5 2.3 10.1 4.3 10.2 4.4.2.2-3.5 8.6-8.2 18.9-4.7 10.3-8.5 19.1-8.5 19.7 0 .5.8 1 1.8 1 1.2-.1 5.2-6.2 13.1-20 10-17.5 11.6-19.9 13-18.8.9.7 4.3 3.6 7.7 6.5 3.4 2.9 6.9 5.3 7.8 5.3.9 0 1.6.5 1.6 1.2 0 .6.3.9.6.6.6-.7-10-16.8-13.8-20.8-1.2-1.4-6.1-6.8-10.7-12-4.7-5.2-10-11.1-11.9-13.1l-3.3-3.6 18.8-15.7 18.8-15.8 15.1 15.5c13.9 14.4 15.4 16.3 19.8 25.4zM82.5 234c-1.6.7-1.7.9-.3.9.9.1 2-.4 2.3-.9.7-1.1.7-1.1-2 0zM116.8 445.7c.7.3 1.6.2 1.9-.1.4-.3-.2-.6-1.3-.5-1.1 0-1.4.3-.6.6z"/></svg>